<svg id="5a9c0d41-129b-4793-81cf-84ef18d64d80" data-name="Layer 1" xmlns="http://www.w3.org/2000/svg" xmlns:xlink="http://www.w3.org/1999/xlink" viewBox="0 0 494.2 507.25"><defs><style>.e40065e2-e6f1-4431-ad45-254da7d84a26{fill:url(#ce9c62a7-5f2c-48b4-a803-2381535ef9ef);}.af53cc8c-9023-4683-9a71-95118c6b01c7{fill:url(#76142dee-3798-4e2e-9ba7-eae7bfa9ec4b);}.\30 f3f24dd-6752-4414-939a-974df5cfe9a2{fill:url(#f5f3c354-b5c4-4123-b8e2-01b40d71a084);}.\39 c1a3c33-9ae5-4efa-be1c-055cee0b1552{fill:url(#0cb4f410-f243-480a-9e0a-932e42c3ff1b);}.\37 50d81b6-1d13-4497-836c-7b8676970302{fill:url(#b90cd331-219d-4ee7-806e-6171272aef70);}.\34 348090a-5155-42ca-95f0-b53fae88ebc6{fill:#231f20;}</style><linearGradient id="ce9c62a7-5f2c-48b4-a803-2381535ef9ef" x1="2752.77" y1="-1975.85" x2="3005.59" y2="-1975.85" gradientTransform="translate(2188.73 3211.86) rotate(-90.32)" gradientUnits="userSpaceOnUse"><stop offset="0" stop-color="#0080c4"/><stop offset="0.06" stop-color="#008ac6"/><stop offset="0.21" stop-color="#009ecb"/><stop offset="0.39" stop-color="#00abce"/><stop offset="0.61" stop-color="#00b4d0"/><stop offset="1" stop-color="#00b6d1"/></linearGradient><linearGradient id="76142dee-3798-4e2e-9ba7-eae7bfa9ec4b" x1="2756.11" y1="-2583.37" x2="3008.94" y2="-2583.37" gradientTransform="matrix(0.01, -1, -1, -0.01, -2302.21, 3211.86)" gradientUnits="userSpaceOnUse"><stop offset="0" stop-color="#eb008b"/><stop offset="1" stop-color="#262261"/></linearGradient><linearGradient id="f5f3c354-b5c4-4123-b8e2-01b40d71a084" x1="1007.32" y1="-1363.73" x2="1260.16" y2="-1363.73" gradientTransform="matrix(0.6, 0.8, 0.8, -0.6, 578.38, -1483.94)" gradientUnits="userSpaceOnUse"><stop offset="0" stop-color="#32b34a"/><stop offset="1" stop-color="#75c167"/></linearGradient><linearGradient id="0cb4f410-f243-480a-9e0a-932e42c3ff1b" x1="637.9" y1="-1859.24" x2="890.74" y2="-1859.24" gradientTransform="translate(-702.23 -1483.94) rotate(126.71)" gradientUnits="userSpaceOnUse"><stop offset="0.27" stop-color="#ec1c24"/><stop offset="0.98" stop-color="#ffd100"/></linearGradient><linearGradient id="b90cd331-219d-4ee7-806e-6171272aef70" x1="1108.9" y1="4954.52" x2="1361.74" y2="4954.52" gradientTransform="matrix(0.57, 0.82, -0.82, 0.57, 3608.66, -3664.37)" gradientUnits="userSpaceOnUse"><stop offset="0.02" stop-color="#ffd100"/><stop offset="0.94" stop-color="#f5862e"/></linearGradient></defs><title>Artboard 1ADN</title><path class="e40065e2-e6f1-4431-ad45-254da7d84a26" d="M204.14,239.81a52.35,52.35,0,0,0-4.85,50,55.49,55.49,0,0,1-47.52,75.92,52.47,52.47,0,1,0,42.78,31.19,55.57,55.57,0,0,1,52.13-75l0-.22a52.4,52.4,0,1,0-42.59-81.85Z"/><path class="af53cc8c-9023-4683-9a71-95118c6b01c7" d="M289.92,239.81a52.35,52.35,0,0,1,4.85,50,55.49,55.49,0,0,0,47.52,75.92,52.47,52.47,0,1,1-42.78,31.19,55.57,55.57,0,0,0-52.13-75l0-.22a52.4,52.4,0,1,1,42.59-81.85Z"/><path class="0f3f24dd-6752-4414-939a-974df5cfe9a2" d="M230.84,318.62a52.34,52.34,0,0,1-34-36.94,55.51,55.51,0,0,0-83.64-32A52.46,52.46,0,1,1,128.61,199a55.54,55.54,0,0,0,86.79,28.51l.18.14a52.4,52.4,0,1,1,15.26,91Z"/><path class="9c1a3c33-9ae5-4efa-be1c-055cee0b1552" d="M263.37,318.62a52.34,52.34,0,0,0,34-36.94,55.51,55.51,0,0,1,83.64-32A52.45,52.45,0,1,0,365.59,199a55.53,55.53,0,0,1-86.79,28.51l-.18.14a52.4,52.4,0,1,0-15.25,91Z"/><path class="750d81b6-1d13-4497-836c-7b8676970302" d="M299.91,268.72a52.37,52.37,0,0,0-24.3-43.89,55.48,55.48,0,0,1-3.86-89.47,52.47,52.47,0,1,0-52.94-1.47,55.55,55.55,0,0,1-.44,91.33l.09.2a52.41,52.41,0,1,0,81.46,43.31Z"/><circle class="4348090a-5155-42ca-95f0-b53fae88ebc6" cx="246.98" cy="89.9" r="18.1"/></svg>