<?xml version="1.0" encoding="utf-8"?>
<!-- Generator: Adobe Illustrator 22.0.1, SVG Export Plug-In . SVG Version: 6.00 Build 0)  -->
<svg version="1.1" id="Capa_1" xmlns="http://www.w3.org/2000/svg" xmlns:xlink="http://www.w3.org/1999/xlink" x="0px" y="0px"
	 viewBox="0 0 1067.1 240.3" style="enable-background:new 0 0 1067.1 240.3;" xml:space="preserve">
<style type="text/css">
	.st0{fill:#FFFFFF;}
	.st1{fill-rule:evenodd;clip-rule:evenodd;fill:#FFD100;}
	.st2{fill:#FFD100;}
	.st3{fill:#A1A2A3;}
	.st4{fill:url(#SVGID_1_);}
	.st5{fill:url(#SVGID_2_);}
	.st6{fill:url(#SVGID_3_);}
	.st7{fill:url(#SVGID_4_);}
	.st8{fill:url(#SVGID_5_);}
	.st9{fill:#1F130E;}
	.st10{fill:#FFFFFF;stroke:#FFFFFF;stroke-width:3.4679;stroke-linecap:round;stroke-linejoin:round;stroke-miterlimit:10;}
	.st11{fill:#FFFFFF;stroke:#FFFFFF;stroke-width:11;stroke-miterlimit:10;}
	.st12{fill:url(#SVGID_6_);}
	.st13{fill:url(#SVGID_7_);}
	.st14{fill:url(#SVGID_8_);}
	.st15{fill:url(#SVGID_9_);}
	.st16{fill:url(#SVGID_10_);}
	.st17{fill:#1D1D1B;}
</style>
<g>
	<g>
		<path class="st0" d="M421,61.4v136.3h-17.3v-23.4c-7.3,8.9-15.6,15.7-24.7,20.2c-9.1,4.5-19.2,6.8-30,6.8c-19.3,0-35.8-7-49.4-21
			c-13.7-14-20.5-31-20.5-51.1c0-19.6,6.9-36.4,20.7-50.4c13.8-13.9,30.4-20.9,49.7-20.9c11.2,0,21.3,2.4,30.4,7.1
			c9.1,4.8,17,11.9,23.9,21.4V61.4H421z M350.9,74.8c-9.8,0-18.8,2.4-27,7.2s-14.8,11.5-19.7,20.2c-4.9,8.7-7.3,17.9-7.3,27.5
			c0,9.6,2.5,18.8,7.4,27.5c4.9,8.8,11.5,15.6,19.8,20.5c8.3,4.9,17.2,7.3,26.7,7.3c9.6,0,18.7-2.4,27.3-7.3
			c8.6-4.8,15.2-11.4,19.8-19.6c4.6-8.3,6.9-17.6,6.9-27.9c0-15.8-5.2-29-15.6-39.5C378.9,80.1,366.1,74.8,350.9,74.8z"/>
		<path class="st0" d="M566.8,8.8v188.9h-17.3v-23.4c-7.4,8.9-15.6,15.7-24.7,20.2c-9.1,4.5-19.2,6.8-30,6.8c-19.3,0-35.8-7-49.4-21
			c-13.7-14-20.5-31-20.5-51.1c0-19.6,6.9-36.4,20.7-50.4c13.8-13.9,30.4-20.9,49.7-20.9c11.2,0,21.3,2.4,30.4,7.1
			c9.1,4.8,17,11.9,23.9,21.4V8.8H566.8z M496.7,74.8c-9.8,0-18.8,2.4-27,7.2c-8.3,4.8-14.8,11.5-19.7,20.2
			c-4.9,8.7-7.3,17.9-7.3,27.5c0,9.6,2.5,18.8,7.4,27.5c4.9,8.8,11.5,15.6,19.8,20.5c8.3,4.9,17.2,7.3,26.7,7.3
			c9.6,0,18.7-2.4,27.3-7.3c8.6-4.8,15.2-11.4,19.8-19.6c4.6-8.3,6.9-17.6,6.9-27.9c0-15.8-5.2-29-15.6-39.5
			C524.6,80.1,511.9,74.8,496.7,74.8z"/>
		<path class="st0" d="M573.9,61.4h17.5v24.4c7-9.4,14.8-16.4,23.3-21c8.5-4.6,17.8-7,27.8-7c10.2,0,19.2,2.6,27.1,7.8
			c7.9,5.2,13.7,12.2,17.5,20.9c3.8,8.8,5.6,22.4,5.6,41v70.2h-17.5v-65c0-15.7-0.7-26.2-2-31.4c-2-9-5.9-15.8-11.7-20.4
			c-5.8-4.6-13.3-6.8-22.5-6.8c-10.6,0-20.1,3.5-28.5,10.5c-8.4,7-13.9,15.7-16.6,26.1c-1.7,6.8-2.5,19.1-2.5,37.1v50h-17.5V61.4z"
			/>
	</g>
	<g>
		<g>
			<path class="st1" d="M690,206.3h-4.9l-2.7,25.2h3.5l0.5-6.1h1.8l0.5,6.1h3.6L690,206.3L690,206.3z M687.5,213.1l-0.7,8.2h1.3
				L687.5,213.1L687.5,213.1z"/>
			<path class="st1" d="M640.2,206.3h-4.9l-2.7,25.2h3.5l0.5-6.1h1.8l0.5,6.1h3.6L640.2,206.3L640.2,206.3z M637.7,213.1l-0.7,8.2
				h1.3L637.7,213.1L637.7,213.1z"/>
			<path class="st1" d="M611.7,206.3h-4.9l-2.7,25.2h3.5l0.5-6.1h1.8l0.5,6.1h3.6L611.7,206.3L611.7,206.3z M609.1,213.1l-0.7,8.2
				h1.3L609.1,213.1L609.1,213.1z"/>
			<polygon class="st2" points="623.3,219.1 621.8,206.3 616,206.3 616,231.5 619.4,231.5 619.4,216.7 621.3,231.5 624.9,231.5 
				626.9,216.7 626.9,231.5 630.5,231.5 630.5,206.3 624.9,206.3 623.3,219.1 			"/>
			<polygon class="st2" points="655.7,206.3 659.6,206.3 659.6,231.5 655.7,231.5 655.7,206.3 			"/>
			<polygon class="st2" points="680.3,231.5 680.3,227.4 676.1,227.4 676.1,206.3 672.1,206.3 672.1,231.5 680.3,231.5 			"/>
			<polygon class="st2" points="670,231.5 670,227.4 665.8,227.4 665.8,206.3 661.8,206.3 661.8,231.5 670,231.5 			"/>
			<path class="st1" d="M644.6,216.8v14.8h3.7v-11.2c0-1.2,1.5,0.4,1.5,1.5v7.5c0,1.4,0.5,2.2,0.5,2.2l3.7,0c0,0-0.5-0.8-0.5-2.2
				v-7.4c0-1.2,0-4.1-2.2-4.1c0,0,2.2-0.4,2.2-5.7c0-4.7-1.5-5.8-5.1-5.8h-3.9V216.8L644.6,216.8z M648.3,210.1v5.9
				c0,0,1.5,0.3,1.5-3C649.8,209.6,648.3,210.1,648.3,210.1L648.3,210.1z"/>
			<path class="st2" d="M694.1,209.7c0-2,1.5-3.5,3.3-3.5l0,0c1.8,0,3.3,1.6,3.3,3.5l0,0c0,1.9-1.5,3.5-3.3,3.5l0,0
				C695.5,213.2,694.1,211.6,694.1,209.7L694.1,209.7z M694.6,209.7c0,1.6,1.2,3,2.8,3l0,0c1.5,0,2.8-1.3,2.8-3l0,0
				c0-1.7-1.2-3-2.8-3l0,0C695.8,206.7,694.6,208,694.6,209.7L694.6,209.7L694.6,209.7z"/>
			<g>
				<path class="st2" d="M695.4,210.9h-0.2l0-2.4h0.4l0.7,2l0.7-1.9h0.4v2.4h-0.3l0-2.1h0l-0.7,2.1h-0.2l-0.7-2.1h0L695.4,210.9z"/>
				<path class="st2" d="M699.2,210.9l-0.4-1.1h-0.6l0,1.1h-0.3v-2.4h0.9c0.2,0,0.4,0,0.5,0.2c0.2,0.1,0.3,0.3,0.3,0.5
					c0,0.3-0.2,0.5-0.4,0.6l0.5,1.1H699.2z M698.7,209.6c0.2,0,0.3,0,0.4-0.1c0.1-0.1,0.1-0.2,0.1-0.3c0-0.1-0.1-0.2-0.2-0.3
					c-0.1-0.1-0.2-0.1-0.3-0.1h-0.6l0,0.9H698.7z"/>
			</g>
			<g>
				<path class="st2" d="M576.4,206.3c-3.8,0-7,3.4-7,7.7c0,4.2,7,17.6,7,17.6s7-13.4,7-17.6C583.3,209.7,580.2,206.3,576.4,206.3z"
					/>
				<path class="st0" d="M576.4,218.3c-2.1,0-3.8-1.9-3.8-4.2c0-2.3,1.7-4.2,3.8-4.2c2.1,0,3.8,1.9,3.8,4.2
					C580.2,216.4,578.5,218.3,576.4,218.3z"/>
			</g>
			<polygon class="st2" points="593.2,219.4 591.2,206.3 585.5,206.3 585.5,231.5 588.8,231.5 588.8,215.5 591.7,231.5 596.6,231.5 
				596.6,206.3 593.2,206.3 593.2,219.4 			"/>
			<path class="st2" d="M552.6,219c0,2.6,0,5.2,0,7.6c0,6.8,8.9,5.9,8.9,0.7c0-4.6,0-5.6,0-5.6h-3.6c0,0,0,2.7,0,5.2
				c0,2-1.8,2-1.8-0.1c0-1,0-4.5,0-7.8c0-3.4,0-6.9,0-7.9c0-2.1,1.8-2.1,1.8-0.1c0,2.4,0,5.2,0,5.2h3.6c0,0,0-1,0-5.6
				c0-5.2-8.9-6.1-8.9,0.7C552.6,213.6,552.6,216.4,552.6,219L552.6,219z"/>
			<path class="st2" d="M541.5,219c0,0,0,5.2,0,7.6c0,6.8,8.9,5.9,8.9,0.7c0-4.6,0-5.6,0-5.6h-3.6c0,0,0,2.7,0,5.2
				c0,2-1.8,2-1.8-0.1c0-1,0-4.5,0-7.8c0-3.4,0-6.9,0-7.9c0-2.1,1.8-2.1,1.8-0.1c0,2.4,0,5.2,0,5.2h3.6c0,0,0-1,0-5.6
				c0-5.2-8.9-6.1-8.9,0.7C541.5,213.6,541.5,216.4,541.5,219L541.5,219z"/>
			<polygon class="st2" points="539.3,206.3 532.5,206.3 532.5,231.5 539.3,231.5 539.3,227.4 536.1,227.4 536.1,221.2 539.3,221.2 
				539.3,216.6 536.1,216.6 536.1,211.3 539.3,211.3 539.3,206.3 			"/>
			<path class="st2" d="M530.3,215.9c0,0,0-3.3,0-5.4c0-5.5-8.9-5.5-8.9,0c0,0.9,0,2.2,0,3.5c0,2,1,3.4,1.1,3.6
				c0.3,0.4,2.8,3.8,3.3,4.6c0.9,1.4,0.9,1.9,0.9,4.4c0,2.3-1.8,2.3-1.8,0c0-0.6,0-4.9,0-4.9h-3.5c0,0,0,3.8,0,5.6
				c0,5.7,9,5.6,9-0.1c0-1.1,0.4-4.8-1-6.6c-1.2-1.6-3.1-4.2-3.7-5.3c-0.9-1.3-0.7-2.1-0.7-4.6c0-1.5,1.8-1.5,1.8,0
				c0,1.3,0,5.1,0,5.1H530.3L530.3,215.9z"/>
			<polygon class="st2" points="563.6,206.3 567.3,206.3 567.3,231.5 563.6,231.5 563.6,206.3 			"/>
		</g>
		<g>
			<g>
				<path class="st3" d="M496.3,214h3v16.7h-3v-1.3c-0.6,0.6-1.2,1-1.8,1.2c-0.6,0.2-1.2,0.4-1.9,0.4c-1.6,0-2.9-0.6-4-1.8
					c-1.1-1.2-1.7-2.7-1.7-4.5c0-1.9,0.5-3.4,1.7-4.6c1.1-1.2,2.4-1.8,4-1.8c0.7,0,1.4,0.1,2,0.4c0.6,0.3,1.2,0.7,1.8,1.2V214z
					 M493.2,221.2c-0.9,0-1.7,0.3-2.3,1c-0.6,0.7-0.9,1.5-0.9,2.5c0,1,0.3,1.9,1,2.6c0.6,0.7,1.4,1,2.3,1c0.9,0,1.7-0.3,2.4-1
					c0.6-0.7,0.9-1.5,0.9-2.6c0-1.1-0.3-1.9-0.9-2.6C494.9,221.5,494.1,221.2,493.2,221.2z"/>
				<path class="st3" d="M514.5,225.6h-9.7c0.1,0.9,0.5,1.5,1.1,2c0.6,0.5,1.4,0.8,2.3,0.8c1.1,0,2.1-0.4,2.9-1.2l2.6,1.2
					c-0.6,0.9-1.4,1.6-2.3,2c-0.9,0.4-1.9,0.6-3.2,0.6c-1.9,0-3.4-0.6-4.6-1.8c-1.2-1.2-1.8-2.7-1.8-4.5c0-1.8,0.6-3.4,1.8-4.6
					c1.2-1.2,2.7-1.8,4.5-1.8c1.9,0,3.4,0.6,4.6,1.8c1.2,1.2,1.8,2.8,1.8,4.8L514.5,225.6z M511.5,223.2c-0.2-0.7-0.6-1.2-1.2-1.6
					c-0.6-0.4-1.3-0.6-2-0.6c-0.9,0-1.6,0.2-2.2,0.7c-0.4,0.3-0.8,0.8-1.1,1.6H511.5z"/>
			</g>
		</g>
	</g>
</g>
<g>
	<g>
		<g>
			<g>
				
					<linearGradient id="SVGID_1_" gradientUnits="userSpaceOnUse" x1="3092.1069" y1="-2595.1538" x2="3219.7354" y2="-2595.1538" gradientTransform="matrix(-5.500000e-03 -1 1 -5.500000e-03 2713.3301 3305.375)">
					<stop  offset="0" style="stop-color:#037DBD"/>
					<stop  offset="2.597165e-02" style="stop-color:#0381BE"/>
					<stop  offset="0.1858" style="stop-color:#0295C6"/>
					<stop  offset="0.3699" style="stop-color:#01A2CB"/>
					<stop  offset="0.5977" style="stop-color:#00ABCE"/>
					<stop  offset="1" style="stop-color:#00ADCF"/>
				</linearGradient>
				<path class="st4" d="M104.4,111.4c-5.2,7.7-5.8,17.2-2.5,25.2c3.3,8.3,2.6,18.1-2.8,26.1c-5,7.4-12.9,11.6-21.1,12.2
					c-9.3-0.9-18.9,3.1-24.5,11.4c-8.2,12.1-5.1,28.5,7,36.8c12.1,8.2,28.5,5,36.8-7c5.3-7.8,5.8-17.4,2.3-25.4
					c-3-8.2-2.2-17.8,3.1-25.6c5.4-8,14.3-12.3,23.2-12.3l0-0.1c8.6,0.1,17.1-3.9,22.3-11.6c8.2-12.1,5.1-28.5-7-36.7
					C129.1,96.1,112.6,99.3,104.4,111.4z"/>
			</g>
		</g>
		<g>
			<g>
				
					<linearGradient id="SVGID_2_" gradientUnits="userSpaceOnUse" x1="3090.7207" y1="-2343.1516" x2="3218.3494" y2="-2343.1516" gradientTransform="matrix(5.500000e-03 -1 -1 -5.500000e-03 -2209.2151 3305.375)">
					<stop  offset="0" style="stop-color:#D90380"/>
					<stop  offset="1" style="stop-color:#212952"/>
				</linearGradient>
				<path class="st5" d="M147.7,111.4c5.2,7.7,5.8,17.2,2.4,25.2c-3.3,8.3-2.6,18.1,2.8,26.1c5,7.4,12.9,11.6,21.2,12.2
					c9.3-0.9,18.9,3.1,24.5,11.4c8.2,12.1,5.1,28.5-7,36.8c-12.1,8.2-28.5,5-36.7-7c-5.3-7.8-5.8-17.4-2.3-25.4
					c3.1-8.2,2.2-17.8-3.1-25.6c-5.4-8-14.3-12.3-23.2-12.3l0-0.1c-8.6,0.1-17.1-3.9-22.3-11.6c-8.2-12.1-5.1-28.5,7-36.7
					C123,96.1,139.5,99.3,147.7,111.4z"/>
			</g>
		</g>
		<g>
			<g>
				
					<linearGradient id="SVGID_3_" gradientUnits="userSpaceOnUse" x1="1215.3525" y1="-1940.0352" x2="1342.9902" y2="-1940.0352" gradientTransform="matrix(0.5977 0.8017 0.8017 -0.5977 874.2547 -2073.5708)">
					<stop  offset="0" style="stop-color:#48A634"/>
					<stop  offset="1" style="stop-color:#80B860"/>
				</linearGradient>
				<path class="st6" d="M117.9,151.1c-8.8-3-15-10.2-17.1-18.6c-2.4-8.7-8.8-16-18-19.1c-8.4-2.9-17.3-1.5-24.2,3
					c-6.9,6.4-17,8.8-26.5,5.6c-13.8-4.7-21.2-19.7-16.5-33.6c4.7-13.8,19.7-21.2,33.6-16.5c8.9,3,15.1,10.4,17.2,18.9
					c2.5,8.4,8.9,15.5,17.8,18.6c9.2,3.1,18.8,1.2,26-4.2l0.1,0.1c6.8-5.3,16-7.1,24.8-4.2c13.8,4.7,21.2,19.7,16.5,33.6
					C146.7,148.5,131.7,155.9,117.9,151.1z"/>
			</g>
		</g>
		<g>
			<g>
				
					<linearGradient id="SVGID_4_" gradientUnits="userSpaceOnUse" x1="1359.7407" y1="-1746.3674" x2="1487.3794" y2="-1746.3674" gradientTransform="matrix(-0.5977 0.8017 -0.8017 -0.5977 -380.5139 -2073.5708)">
					<stop  offset="0.2694" style="stop-color:#DE0A14"/>
					<stop  offset="0.9816" style="stop-color:#FFD100"/>
				</linearGradient>
				<path class="st7" d="M134.3,151.1c8.8-3,15-10.2,17.1-18.6c2.4-8.7,8.8-16,18-19.1c8.4-2.9,17.3-1.5,24.2,3
					c6.9,6.4,17,8.8,26.5,5.6c13.8-4.7,21.2-19.7,16.5-33.6c-4.7-13.8-19.8-21.2-33.6-16.5c-8.9,3-15.1,10.4-17.2,18.9
					c-2.5,8.4-8.9,15.5-17.8,18.6c-9.2,3.1-18.8,1.2-26-4.2l-0.1,0.1c-6.8-5.3-16-7.1-24.8-4.2c-13.8,4.7-21.2,19.7-16.5,33.6
					C105.4,148.5,120.5,155.9,134.3,151.1z"/>
			</g>
		</g>
		<g>
			<g>
				
					<linearGradient id="SVGID_5_" gradientUnits="userSpaceOnUse" x1="1329.8097" y1="5159.2354" x2="1457.4476" y2="5159.2354" gradientTransform="matrix(0.5711 0.8209 -0.8209 0.5711 3565.3457 -4009.689)">
					<stop  offset="1.691440e-02" style="stop-color:#E0C203"/>
					<stop  offset="0.9436" style="stop-color:#EC8A1D"/>
				</linearGradient>
				<path class="st8" d="M152.7,126c0-9.3-5-17.5-12.3-22.2c-7.5-5-12.4-13.5-12.5-23.1c-0.1-8.9,4.1-16.9,10.5-22
					c8.2-4.5,13.8-13.3,13.7-23.3c-0.1-14.6-12-26.4-26.6-26.3C111,9.1,99.2,21,99.3,35.6c0.1,9.4,5.1,17.6,12.5,22.3
					c7.2,5,11.9,13.4,12,22.8c0.1,9.7-4.8,18.2-12.2,23.3l0,0.1c-7.2,4.8-11.8,12.9-11.8,22.2c0.1,14.6,12,26.4,26.6,26.3
					C141.1,152.5,152.8,140.6,152.7,126z"/>
			</g>
		</g>
		<path class="st9" d="M135.2,35.7c0,5-4.1,9.1-9.1,9.1c-5,0-9.1-4.1-9.1-9.1c0-5.1,4.1-9.1,9.1-9.1
			C131.1,26.6,135.2,30.6,135.2,35.7z"/>
	</g>
</g>
<g>
	<g>
		<path class="st0" d="M749.3,44.9v27.1h-3.4v-4.6c-1.5,1.8-3.1,3.1-4.9,4c-1.8,0.9-3.8,1.3-5.9,1.3c-3.8,0-7.1-1.4-9.8-4.2
			c-2.7-2.8-4.1-6.2-4.1-10.1c0-3.9,1.4-7.2,4.1-10c2.7-2.8,6-4.2,9.9-4.2c2.2,0,4.2,0.5,6,1.4c1.8,0.9,3.4,2.4,4.7,4.3v-5H749.3z
			 M735.4,47.5c-1.9,0-3.7,0.5-5.4,1.4c-1.6,1-2.9,2.3-3.9,4c-1,1.7-1.5,3.5-1.5,5.5c0,1.9,0.5,3.7,1.5,5.5c1,1.7,2.3,3.1,3.9,4.1
			c1.6,1,3.4,1.5,5.3,1.5c1.9,0,3.7-0.5,5.4-1.4c1.7-1,3-2.3,3.9-3.9c0.9-1.6,1.4-3.5,1.4-5.5c0-3.1-1-5.7-3.1-7.8
			C740.9,48.6,738.4,47.5,735.4,47.5z"/>
		<path class="st0" d="M783.4,50.5l-2.8,1.7c-2.4-3.2-5.6-4.7-9.8-4.7c-3.3,0-6,1-8.2,3.2c-2.2,2.1-3.3,4.7-3.3,7.7
			c0,2,0.5,3.8,1.5,5.6c1,1.7,2.4,3.1,4.1,4c1.7,1,3.7,1.4,5.9,1.4c4,0,7.2-1.6,9.7-4.8l2.8,1.8c-1.3,2-3,3.5-5.2,4.5
			c-2.2,1.1-4.7,1.6-7.4,1.6c-4.3,0-7.8-1.4-10.6-4.1c-2.8-2.7-4.2-6-4.2-9.9c0-2.6,0.7-5.1,2-7.3c1.3-2.3,3.1-4,5.4-5.3
			c2.3-1.3,4.9-1.9,7.7-1.9c1.8,0,3.5,0.3,5.2,0.8c1.7,0.6,3.1,1.3,4.2,2.1C781.6,48,782.6,49.1,783.4,50.5z"/>
		<path class="st0" d="M812.8,63l2.9,1.5c-1,1.9-2.1,3.4-3.3,4.6c-1.3,1.2-2.7,2.1-4.3,2.7c-1.6,0.6-3.4,0.9-5.4,0.9
			c-4.4,0-7.9-1.4-10.3-4.3c-2.5-2.9-3.7-6.2-3.7-9.8c0-3.4,1.1-6.5,3.2-9.2c2.7-3.4,6.2-5.1,10.7-5.1c4.6,0,8.3,1.7,11,5.2
			c2,2.5,3,5.6,3,9.3h-24.3c0.1,3.1,1.1,5.7,3,7.7c1.9,2,4.3,3,7.2,3c1.4,0,2.7-0.2,4-0.7c1.3-0.5,2.4-1.1,3.3-1.9
			C810.8,66,811.8,64.7,812.8,63z M812.8,55.7c-0.5-1.9-1.1-3.3-2-4.5c-0.9-1.1-2.1-2-3.5-2.7c-1.5-0.7-3-1-4.6-1
			c-2.7,0-4.9,0.9-6.8,2.6c-1.4,1.2-2.4,3.1-3.2,5.6H812.8z"/>
		<path class="st0" d="M822.6,34.4h3.5v37.5h-3.5V34.4z"/>
		<path class="st0" d="M856.1,63l2.9,1.5c-1,1.9-2.1,3.4-3.3,4.6c-1.3,1.2-2.7,2.1-4.3,2.7c-1.6,0.6-3.4,0.9-5.4,0.9
			c-4.4,0-7.9-1.4-10.4-4.3c-2.5-2.9-3.7-6.2-3.7-9.8c0-3.4,1.1-6.5,3.2-9.2c2.7-3.4,6.2-5.1,10.7-5.1c4.6,0,8.3,1.7,11.1,5.2
			c2,2.5,3,5.6,3,9.3h-24.3c0.1,3.1,1.1,5.7,3,7.7c1.9,2,4.3,3,7.2,3c1.4,0,2.7-0.2,4-0.7c1.3-0.5,2.4-1.1,3.3-1.9
			C854.1,66,855.1,64.7,856.1,63z M856.1,55.7c-0.5-1.9-1.1-3.3-2-4.5c-0.9-1.1-2.1-2-3.5-2.7c-1.5-0.7-3-1-4.6-1
			c-2.7,0-4.9,0.9-6.8,2.6c-1.4,1.2-2.4,3.1-3.2,5.6H856.1z"/>
		<path class="st0" d="M865.1,44.9h3.6v4c1.1-1.6,2.2-2.7,3.4-3.5c1.2-0.8,2.4-1.2,3.7-1.2c1,0,2,0.3,3.1,0.9L877,48
			c-0.7-0.3-1.3-0.5-1.8-0.5c-1.1,0-2.3,0.5-3.4,1.4c-1.1,1-1.9,2.4-2.5,4.4c-0.4,1.6-0.6,4.7-0.6,9.4v9.1h-3.6V44.9z"/>
		<path class="st0" d="M908.7,44.9v27.1h-3.4v-4.6c-1.5,1.8-3.1,3.1-4.9,4c-1.8,0.9-3.8,1.3-5.9,1.3c-3.8,0-7.1-1.4-9.8-4.2
			c-2.7-2.8-4.1-6.2-4.1-10.1c0-3.9,1.4-7.2,4.1-10c2.7-2.8,6-4.2,9.9-4.2c2.2,0,4.2,0.5,6,1.4c1.8,0.9,3.4,2.4,4.7,4.3v-5H908.7z
			 M894.8,47.5c-1.9,0-3.7,0.5-5.4,1.4c-1.6,1-2.9,2.3-3.9,4c-1,1.7-1.5,3.5-1.5,5.5c0,1.9,0.5,3.7,1.5,5.5c1,1.7,2.3,3.1,3.9,4.1
			c1.6,1,3.4,1.5,5.3,1.5c1.9,0,3.7-0.5,5.4-1.4c1.7-1,3-2.3,3.9-3.9c0.9-1.6,1.4-3.5,1.4-5.5c0-3.1-1-5.7-3.1-7.8
			C900.3,48.6,897.8,47.5,894.8,47.5z"/>
		<path class="st0" d="M943.5,34.4v37.5h-3.4v-4.6c-1.5,1.8-3.1,3.1-4.9,4c-1.8,0.9-3.8,1.3-6,1.3c-3.8,0-7.1-1.4-9.8-4.2
			c-2.7-2.8-4.1-6.2-4.1-10.1c0-3.9,1.4-7.2,4.1-10c2.7-2.8,6-4.2,9.9-4.2c2.2,0,4.2,0.5,6,1.4c1.8,0.9,3.4,2.4,4.7,4.3V34.4H943.5z
			 M929.6,47.5c-1.9,0-3.7,0.5-5.4,1.4c-1.6,1-2.9,2.3-3.9,4c-1,1.7-1.4,3.5-1.4,5.5c0,1.9,0.5,3.7,1.5,5.5c1,1.7,2.3,3.1,3.9,4.1
			c1.7,1,3.4,1.5,5.3,1.5c1.9,0,3.7-0.5,5.4-1.4c1.7-1,3-2.3,3.9-3.9c0.9-1.6,1.4-3.5,1.4-5.5c0-3.1-1-5.7-3.1-7.8
			C935.2,48.6,932.6,47.5,929.6,47.5z"/>
		<path class="st0" d="M964.2,44.2c4.2,0,7.6,1.5,10.4,4.5c2.5,2.8,3.7,6,3.7,9.8c0,3.8-1.3,7.1-4,9.9c-2.6,2.8-6,4.2-10.1,4.2
			c-4.2,0-7.5-1.4-10.2-4.2c-2.6-2.8-4-6.1-4-9.9c0-3.7,1.2-7,3.7-9.8C956.6,45.7,960,44.2,964.2,44.2z M964.2,47.6
			c-2.9,0-5.4,1.1-7.5,3.2c-2.1,2.1-3.1,4.7-3.1,7.8c0,2,0.5,3.8,1.4,5.5c0.9,1.7,2.2,3,3.8,3.9c1.6,0.9,3.4,1.4,5.3,1.4
			c1.9,0,3.7-0.5,5.3-1.4c1.6-0.9,2.9-2.2,3.8-3.9c0.9-1.7,1.4-3.5,1.4-5.5c0-3-1-5.6-3.1-7.8C969.6,48.7,967.1,47.6,964.2,47.6z"/>
		<path class="st0" d="M983.4,44.9h3.6v4c1.1-1.6,2.2-2.7,3.3-3.5c1.2-0.8,2.4-1.2,3.7-1.2c1,0,2,0.3,3.1,0.9l-1.8,2.9
			c-0.7-0.3-1.3-0.5-1.8-0.5c-1.2,0-2.3,0.5-3.4,1.4c-1.1,1-1.9,2.4-2.5,4.4c-0.4,1.6-0.6,4.7-0.6,9.4v9.1h-3.6V44.9z"/>
		<path class="st0" d="M749.6,98.2v37.5h-3.4V131c-1.5,1.8-3.1,3.1-4.9,4c-1.8,0.9-3.8,1.3-6,1.3c-3.8,0-7.1-1.4-9.8-4.2
			c-2.7-2.8-4.1-6.2-4.1-10.1c0-3.9,1.4-7.2,4.1-10c2.7-2.8,6-4.2,9.9-4.2c2.2,0,4.2,0.5,6,1.4c1.8,0.9,3.4,2.4,4.7,4.3V98.2H749.6z
			 M735.7,111.3c-1.9,0-3.7,0.5-5.4,1.4c-1.6,1-3,2.3-3.9,4c-1,1.7-1.5,3.5-1.5,5.5c0,1.9,0.5,3.7,1.5,5.5c1,1.7,2.3,3.1,3.9,4.1
			c1.6,1,3.4,1.5,5.3,1.5c1.9,0,3.7-0.5,5.4-1.4c1.7-1,3-2.3,3.9-3.9c0.9-1.6,1.4-3.5,1.4-5.5c0-3.1-1-5.7-3.1-7.8
			C741.3,112.3,738.7,111.3,735.7,111.3z"/>
		<path class="st0" d="M758.7,97.5c0.8,0,1.5,0.3,2,0.8c0.6,0.6,0.8,1.2,0.8,2c0,0.8-0.3,1.5-0.8,2c-0.6,0.6-1.2,0.8-2,0.8
			c-0.8,0-1.4-0.3-2-0.8c-0.6-0.6-0.8-1.2-0.8-2c0-0.8,0.3-1.5,0.8-2C757.3,97.8,758,97.5,758.7,97.5z M757,108.6h3.5v27.1H757
			V108.6z"/>
		<path class="st0" d="M791,108.6h3.5v21.6c0,3.8-0.3,6.6-1,8.3c-0.9,2.5-2.5,4.4-4.8,5.7c-2.3,1.4-5,2-8.1,2c-2.3,0-4.4-0.3-6.3-1
			c-1.8-0.7-3.3-1.5-4.5-2.6c-1.2-1.1-2.2-2.7-3.2-4.8h3.8c1,1.8,2.4,3.1,4,4c1.6,0.9,3.6,1.3,6.1,1.3c2.4,0,4.4-0.4,6-1.3
			c1.6-0.9,2.8-2,3.5-3.3c0.7-1.3,1-3.5,1-6.5v-1.4c-1.3,1.7-2.9,2.9-4.8,3.8c-1.9,0.9-3.9,1.3-6,1.3c-2.5,0-4.8-0.6-7-1.8
			c-2.2-1.2-3.9-2.9-5.1-5c-1.2-2.1-1.8-4.4-1.8-6.9c0-2.5,0.6-4.8,1.9-7c1.2-2.2,3-3.9,5.2-5.1c2.2-1.3,4.5-1.9,7-1.9
			c2,0,3.9,0.4,5.7,1.3c1.7,0.8,3.4,2.2,5.1,4.1V108.6z M780.8,111.3c-2,0-3.8,0.5-5.5,1.4c-1.7,0.9-3,2.3-4,3.9
			c-1,1.7-1.4,3.5-1.4,5.5c0,3,1,5.4,3,7.4c2,1.9,4.6,2.9,7.7,2.9c3.2,0,5.8-1,7.7-2.9c1.9-1.9,2.9-4.4,2.9-7.6c0-2-0.4-3.9-1.4-5.5
			c-0.9-1.6-2.2-2.9-3.8-3.8C784.4,111.8,782.7,111.3,780.8,111.3z"/>
		<path class="st0" d="M803.2,97.5c0.8,0,1.5,0.3,2,0.8c0.6,0.6,0.8,1.2,0.8,2c0,0.8-0.3,1.5-0.8,2c-0.6,0.6-1.2,0.8-2,0.8
			c-0.8,0-1.4-0.3-2-0.8c-0.6-0.6-0.9-1.2-0.9-2c0-0.8,0.3-1.5,0.9-2C801.7,97.8,802.4,97.5,803.2,97.5z M801.5,108.6h3.5v27.1h-3.5
			V108.6z"/>
		<path class="st0" d="M815.2,98.6h3.5v10h5.5v3h-5.5v24h-3.5v-24h-4.7v-3h4.7V98.6z"/>
		<path class="st0" d="M856.4,108.6v27.1h-3.4V131c-1.5,1.8-3.1,3.1-4.9,4c-1.8,0.9-3.8,1.3-6,1.3c-3.8,0-7.1-1.4-9.8-4.2
			c-2.7-2.8-4.1-6.2-4.1-10.1c0-3.9,1.4-7.2,4.1-10c2.7-2.8,6-4.2,9.9-4.2c2.2,0,4.2,0.5,6,1.4c1.8,0.9,3.4,2.4,4.7,4.3v-5H856.4z
			 M842.5,111.3c-1.9,0-3.7,0.5-5.4,1.4c-1.6,1-3,2.3-3.9,4c-1,1.7-1.5,3.5-1.5,5.5c0,1.9,0.5,3.7,1.5,5.5c1,1.7,2.3,3.1,3.9,4.1
			c1.6,1,3.4,1.5,5.3,1.5c1.9,0,3.7-0.5,5.4-1.4c1.7-1,3-2.3,3.9-3.9s1.4-3.5,1.4-5.5c0-3.1-1-5.7-3.1-7.8
			C848,112.3,845.5,111.3,842.5,111.3z"/>
		<path class="st0" d="M863.7,98.2h3.5v37.5h-3.5V98.2z"/>
		<path class="st0" d="M915.5,98.2v37.5h-3.4V131c-1.5,1.8-3.1,3.1-4.9,4c-1.8,0.9-3.8,1.3-6,1.3c-3.8,0-7.1-1.4-9.8-4.2
			c-2.7-2.8-4.1-6.2-4.1-10.1c0-3.9,1.4-7.2,4.1-10c2.7-2.8,6-4.2,9.9-4.2c2.2,0,4.2,0.5,6,1.4c1.8,0.9,3.4,2.4,4.7,4.3V98.2H915.5z
			 M901.6,111.3c-1.9,0-3.7,0.5-5.4,1.4c-1.6,1-2.9,2.3-3.9,4c-1,1.7-1.5,3.5-1.5,5.5c0,1.9,0.5,3.7,1.5,5.5c1,1.7,2.3,3.1,3.9,4.1
			c1.6,1,3.4,1.5,5.3,1.5c1.9,0,3.7-0.5,5.4-1.4c1.7-1,3-2.3,3.9-3.9s1.4-3.5,1.4-5.5c0-3.1-1-5.7-3.1-7.8
			C907.1,112.3,904.6,111.3,901.6,111.3z"/>
		<path class="st0" d="M946.1,126.7l2.9,1.5c-1,1.9-2.1,3.4-3.3,4.6c-1.3,1.2-2.7,2.1-4.3,2.7c-1.6,0.6-3.4,0.9-5.4,0.9
			c-4.4,0-7.9-1.4-10.3-4.3c-2.5-2.9-3.7-6.2-3.7-9.8c0-3.4,1.1-6.5,3.2-9.2c2.7-3.4,6.3-5.1,10.7-5.1c4.6,0,8.3,1.7,11,5.2
			c2,2.5,3,5.6,3,9.3h-24.3c0.1,3.1,1.1,5.7,3,7.7c1.9,2,4.3,3,7.2,3c1.4,0,2.7-0.2,4-0.7c1.3-0.5,2.4-1.1,3.3-1.9
			C944.1,129.7,945.1,128.5,946.1,126.7z M946.1,119.4c-0.5-1.9-1.1-3.3-2-4.5c-0.9-1.1-2.1-2-3.5-2.7c-1.5-0.7-3-1-4.6-1
			c-2.7,0-4.9,0.9-6.8,2.6c-1.4,1.2-2.5,3.1-3.2,5.6H946.1z"/>
		<path class="st0" d="M727.5,171.6h3.5v4.8c1.4-1.9,2.9-3.2,4.6-4.2c1.7-0.9,3.5-1.4,5.5-1.4c2,0,3.8,0.5,5.4,1.5
			c1.6,1,2.7,2.4,3.5,4.2c0.7,1.7,1.1,4.4,1.1,8.1v13.9h-3.5v-12.9c0-3.1-0.1-5.2-0.4-6.2c-0.4-1.8-1.2-3.1-2.3-4
			c-1.1-0.9-2.6-1.4-4.5-1.4c-2.1,0-4,0.7-5.7,2.1c-1.7,1.4-2.8,3.1-3.3,5.2c-0.3,1.3-0.5,3.8-0.5,7.4v9.9h-3.5V171.6z"/>
		<path class="st0" d="M781.3,189.6l2.9,1.5c-1,1.9-2.1,3.4-3.3,4.6c-1.3,1.2-2.7,2.1-4.3,2.7c-1.6,0.6-3.4,0.9-5.3,0.9
			c-4.4,0-7.9-1.4-10.4-4.3c-2.5-2.9-3.7-6.2-3.7-9.8c0-3.4,1.1-6.5,3.2-9.2c2.7-3.4,6.2-5.1,10.7-5.1c4.6,0,8.3,1.7,11,5.2
			c2,2.5,3,5.6,3,9.3h-24.3c0.1,3.1,1.1,5.7,3,7.7c1.9,2,4.3,3,7.2,3c1.4,0,2.7-0.2,4-0.7c1.3-0.5,2.4-1.1,3.3-1.9
			C779.2,192.7,780.2,191.4,781.3,189.6z M781.3,182.3c-0.5-1.9-1.1-3.3-2-4.5c-0.9-1.1-2.1-2-3.5-2.7c-1.5-0.7-3-1-4.6-1
			c-2.7,0-4.9,0.9-6.8,2.6c-1.4,1.2-2.5,3.1-3.2,5.6H781.3z"/>
		<path class="st0" d="M814.9,171.6h3.5v21.6c0,3.8-0.3,6.6-1,8.3c-0.9,2.5-2.5,4.4-4.7,5.7c-2.3,1.4-5,2-8.1,2
			c-2.3,0-4.4-0.3-6.3-1c-1.9-0.7-3.4-1.5-4.5-2.6c-1.2-1.1-2.2-2.7-3.2-4.8h3.8c1,1.8,2.3,3.1,4,4c1.6,0.9,3.6,1.3,6,1.3
			c2.4,0,4.4-0.4,6-1.3c1.6-0.9,2.8-2,3.5-3.3c0.7-1.3,1-3.5,1-6.5v-1.4c-1.3,1.7-2.9,2.9-4.8,3.8c-1.9,0.9-3.9,1.3-6,1.3
			c-2.5,0-4.8-0.6-7-1.8c-2.2-1.2-3.9-2.9-5.1-5c-1.2-2.1-1.8-4.4-1.8-6.9s0.6-4.8,1.9-7c1.2-2.2,3-3.9,5.2-5.1
			c2.2-1.3,4.5-1.9,7-1.9c2,0,3.9,0.4,5.7,1.3c1.7,0.8,3.4,2.2,5.1,4.1V171.6z M804.7,174.2c-2,0-3.8,0.5-5.5,1.4
			c-1.7,0.9-3,2.3-4,3.9c-1,1.7-1.4,3.5-1.4,5.5c0,3,1,5.4,3,7.4c2,1.9,4.6,2.9,7.7,2.9c3.2,0,5.8-1,7.7-2.9c2-1.9,2.9-4.4,2.9-7.6
			c0-2-0.5-3.9-1.4-5.5c-0.9-1.6-2.2-2.9-3.8-3.8C808.3,174.7,806.6,174.2,804.7,174.2z"/>
		<path class="st0" d="M838.7,170.9c4.2,0,7.6,1.5,10.4,4.5c2.5,2.8,3.7,6,3.7,9.8c0,3.8-1.3,7.1-4,9.9c-2.6,2.8-6,4.2-10.1,4.2
			c-4.2,0-7.5-1.4-10.2-4.2c-2.6-2.8-3.9-6.1-3.9-9.9c0-3.7,1.2-7,3.7-9.8C831,172.4,834.5,170.9,838.7,170.9z M838.7,174.3
			c-2.9,0-5.4,1.1-7.5,3.2c-2.1,2.1-3.1,4.7-3.1,7.8c0,2,0.5,3.8,1.4,5.5c0.9,1.7,2.2,3,3.8,3.9c1.6,0.9,3.4,1.4,5.3,1.4
			c1.9,0,3.7-0.5,5.3-1.4c1.6-0.9,2.9-2.2,3.8-3.9c1-1.7,1.4-3.5,1.4-5.5c0-3-1-5.6-3.1-7.8C844,175.3,841.5,174.3,838.7,174.3z"/>
		<path class="st0" d="M885.5,177.2l-2.8,1.7c-2.4-3.2-5.6-4.7-9.8-4.7c-3.3,0-6,1-8.2,3.2c-2.2,2.1-3.3,4.7-3.3,7.7
			c0,2,0.5,3.8,1.5,5.6c1,1.7,2.4,3.1,4.1,4c1.7,1,3.7,1.4,5.9,1.4c4,0,7.2-1.6,9.7-4.8l2.8,1.8c-1.3,2-3,3.5-5.2,4.5
			c-2.2,1.1-4.7,1.6-7.5,1.6c-4.3,0-7.8-1.4-10.6-4.1c-2.8-2.7-4.2-6-4.2-9.9c0-2.6,0.7-5.1,2-7.3c1.3-2.3,3.1-4,5.4-5.3
			c2.3-1.3,4.9-1.9,7.7-1.9c1.8,0,3.5,0.3,5.2,0.8c1.7,0.6,3.1,1.3,4.2,2.1C883.7,174.7,884.7,175.8,885.5,177.2z"/>
		<path class="st0" d="M893.3,160.4c0.8,0,1.5,0.3,2,0.8c0.6,0.6,0.8,1.2,0.8,2c0,0.8-0.3,1.5-0.8,2c-0.6,0.6-1.2,0.8-2,0.8
			c-0.8,0-1.4-0.3-2-0.8c-0.6-0.6-0.8-1.2-0.8-2c0-0.8,0.3-1.5,0.8-2C891.9,160.7,892.6,160.4,893.3,160.4z M891.6,171.6h3.5v27.1
			h-3.5V171.6z"/>
		<path class="st0" d="M915.1,170.9c4.2,0,7.6,1.5,10.4,4.5c2.5,2.8,3.7,6,3.7,9.8c0,3.8-1.3,7.1-3.9,9.9c-2.6,2.8-6,4.2-10.1,4.2
			c-4.2,0-7.5-1.4-10.2-4.2c-2.6-2.8-4-6.1-4-9.9c0-3.7,1.2-7,3.7-9.8C907.5,172.4,911,170.9,915.1,170.9z M915.1,174.3
			c-2.9,0-5.4,1.1-7.5,3.2c-2.1,2.1-3.1,4.7-3.1,7.8c0,2,0.5,3.8,1.4,5.5c0.9,1.7,2.2,3,3.8,3.9c1.6,0.9,3.4,1.4,5.3,1.4
			c1.9,0,3.7-0.5,5.3-1.4c1.6-0.9,2.9-2.2,3.8-3.9c1-1.7,1.4-3.5,1.4-5.5c0-3-1-5.6-3.1-7.8C920.5,175.3,918,174.3,915.1,174.3z"/>
		<path class="st0" d="M949.3,174.5l-2.2,2.3c-1.9-1.8-3.7-2.7-5.5-2.7c-1.1,0-2.1,0.4-2.9,1.1c-0.8,0.7-1.2,1.6-1.2,2.6
			c0,0.9,0.3,1.7,1,2.5c0.7,0.8,2.1,1.8,4.2,2.8c2.6,1.3,4.3,2.6,5.3,3.9c0.9,1.3,1.4,2.7,1.4,4.2c0,2.2-0.8,4.1-2.3,5.7
			c-1.6,1.5-3.5,2.3-5.8,2.3c-1.6,0-3.1-0.3-4.5-1c-1.4-0.7-2.6-1.6-3.5-2.8l2.2-2.5c1.8,2,3.7,3,5.7,3c1.4,0,2.6-0.5,3.6-1.4
			c1-0.9,1.5-1.9,1.5-3.2c0-1-0.3-1.9-1-2.7c-0.6-0.8-2.1-1.7-4.4-2.9c-2.4-1.3-4.1-2.5-5-3.7c-0.9-1.2-1.3-2.6-1.3-4.2
			c0-2.1,0.7-3.8,2.1-5.1c1.4-1.4,3.2-2,5.3-2C944.2,170.9,946.8,172.1,949.3,174.5z"/>
	</g>
</g>
<g>
	<g>
		<g>
			<path class="st10" d="M1016.8,67.3v-12h2.4l2.8,8.5c0.3,0.8,0.5,1.4,0.6,1.8c0.1-0.4,0.3-1.1,0.6-1.9l2.9-8.4h2.1v12h-1.5V57.3
				l-3.5,10.1h-1.4l-3.5-10.2v10.2H1016.8z"/>
			<path class="st10" d="M1030.9,67.3v-12h5.3c1.1,0,1.9,0.1,2.4,0.3c0.6,0.2,1,0.6,1.3,1.1c0.3,0.5,0.5,1.2,0.5,1.8
				c0,0.9-0.3,1.6-0.8,2.2c-0.6,0.6-1.4,1-2.6,1.1c0.4,0.2,0.7,0.4,1,0.6c0.5,0.4,0.9,1,1.3,1.6l2.1,3.3h-2l-1.6-2.5
				c-0.5-0.7-0.8-1.3-1.1-1.7c-0.3-0.4-0.6-0.7-0.8-0.8c-0.2-0.2-0.5-0.3-0.7-0.3c-0.2,0-0.5-0.1-0.9-0.1h-1.8v5.3H1030.9z
				 M1032.5,60.6h3.4c0.7,0,1.3-0.1,1.7-0.2s0.7-0.4,0.9-0.7s0.3-0.7,0.3-1.1c0-0.6-0.2-1-0.6-1.4s-1.1-0.5-2-0.5h-3.8V60.6z"/>
		</g>
		<path class="st10" d="M1028.2,43.1c-10,0-18.2,8.1-18.2,18.2s8.1,18.2,18.2,18.2c10,0,18.2-8.1,18.2-18.2S1038.3,43.1,1028.2,43.1
			z M1028.2,77.6c-9,0-16.3-7.3-16.3-16.3s7.3-16.3,16.3-16.3c9,0,16.3,7.3,16.3,16.3S1037.2,77.6,1028.2,77.6z"/>
	</g>
	<g>
		<g>
			<path class="st0" d="M1016.8,67.3v-12h2.4l2.8,8.5c0.3,0.8,0.5,1.4,0.6,1.8c0.1-0.4,0.3-1.1,0.6-1.9l2.9-8.4h2.1v12h-1.5V57.3
				l-3.5,10.1h-1.4l-3.5-10.2v10.2H1016.8z"/>
			<path class="st0" d="M1030.9,67.3v-12h5.3c1.1,0,1.9,0.1,2.4,0.3c0.6,0.2,1,0.6,1.3,1.1c0.3,0.5,0.5,1.2,0.5,1.8
				c0,0.9-0.3,1.6-0.8,2.2c-0.6,0.6-1.4,1-2.6,1.1c0.4,0.2,0.7,0.4,1,0.6c0.5,0.4,0.9,1,1.3,1.6l2.1,3.3h-2l-1.6-2.5
				c-0.5-0.7-0.8-1.3-1.1-1.7c-0.3-0.4-0.6-0.7-0.8-0.8c-0.2-0.2-0.5-0.3-0.7-0.3c-0.2,0-0.5-0.1-0.9-0.1h-1.8v5.3H1030.9z
				 M1032.5,60.6h3.4c0.7,0,1.3-0.1,1.7-0.2s0.7-0.4,0.9-0.7s0.3-0.7,0.3-1.1c0-0.6-0.2-1-0.6-1.4s-1.1-0.5-2-0.5h-3.8V60.6z"/>
		</g>
		<path class="st0" d="M1028.2,43.1c-10,0-18.2,8.1-18.2,18.2s8.1,18.2,18.2,18.2c10,0,18.2-8.1,18.2-18.2S1038.3,43.1,1028.2,43.1z
			 M1028.2,77.6c-9,0-16.3-7.3-16.3-16.3s7.3-16.3,16.3-16.3c9,0,16.3,7.3,16.3,16.3S1037.2,77.6,1028.2,77.6z"/>
	</g>
</g>
<g>
	<g>
		<g>
			<g>
				<path class="st11" d="M104.3,111c-5.2,7.7-5.8,17.2-2.4,25.2c3.3,8.3,2.6,18.1-2.8,26.1c-5,7.3-12.9,11.6-21.1,12.2
					c-9.3-0.9-18.8,3.1-24.4,11.4c-8.2,12.1-5.1,28.5,7,36.7c12.1,8.2,28.5,5,36.7-7c5.3-7.8,5.8-17.4,2.3-25.4
					c-3-8.2-2.2-17.7,3.1-25.5c5.4-8,14.2-12.3,23.2-12.3l0-0.1c8.6,0.1,17-3.9,22.2-11.6c8.2-12.1,5.1-28.5-7-36.7
					C128.9,95.8,112.4,99,104.3,111z"/>
			</g>
		</g>
		<g>
			<g>
				<path class="st11" d="M147.5,111c5.2,7.7,5.8,17.2,2.4,25.2c-3.3,8.3-2.6,18.1,2.8,26.1c5,7.3,12.9,11.6,21.1,12.2
					c9.3-0.9,18.8,3.1,24.4,11.4c8.2,12.1,5.1,28.5-7,36.7c-12.1,8.2-28.5,5-36.7-7c-5.3-7.8-5.8-17.4-2.3-25.4
					c3-8.2,2.2-17.7-3.1-25.5c-5.4-8-14.2-12.3-23.2-12.3l0-0.1c-8.6,0.1-17-3.9-22.2-11.6c-8.2-12.1-5.1-28.5,7-36.7
					C122.8,95.8,139.3,99,147.5,111z"/>
			</g>
		</g>
		<g>
			<g>
				<path class="st11" d="M117.7,150.7c-8.8-3-15-10.2-17.1-18.6c-2.4-8.6-8.8-16-18-19.1c-8.4-2.9-17.2-1.5-24.2,3
					c-6.9,6.3-16.9,8.8-26.4,5.6c-13.8-4.7-21.2-19.7-16.5-33.5c4.7-13.8,19.7-21.2,33.5-16.5c8.9,3,15.1,10.3,17.1,18.9
					C68.7,98.9,75.1,106,84,109c9.1,3.1,18.8,1.2,25.9-4.2l0.1,0.1c6.8-5.2,16-7.1,24.7-4.1c13.8,4.7,21.2,19.7,16.5,33.5
					C146.5,148.1,131.5,155.4,117.7,150.7z"/>
			</g>
		</g>
		<g>
			<g>
				<path class="st11" d="M134.1,150.7c8.8-3,15-10.2,17.1-18.6c2.4-8.6,8.8-16,18-19.1c8.4-2.9,17.2-1.5,24.2,3
					c6.9,6.3,16.9,8.8,26.4,5.6c13.8-4.7,21.2-19.7,16.5-33.5c-4.7-13.8-19.7-21.2-33.5-16.5c-8.9,3-15.1,10.3-17.1,18.9
					c-2.5,8.4-8.9,15.5-17.8,18.5c-9.1,3.1-18.8,1.2-25.9-4.2l-0.1,0.1c-6.8-5.2-16-7.1-24.7-4.1c-13.8,4.7-21.2,19.7-16.5,33.5
					C105.3,148.1,120.3,155.4,134.1,150.7z"/>
			</g>
		</g>
		<g>
			<g>
				<path class="st11" d="M152.5,125.6c0-9.3-4.9-17.4-12.2-22.1c-7.4-5-12.4-13.5-12.4-23.1c-0.1-8.9,4.1-16.8,10.5-22
					c8.2-4.5,13.7-13.3,13.7-23.3c-0.1-14.6-12-26.3-26.6-26.3c-14.6,0.1-26.3,12-26.3,26.6c0.1,9.4,5,17.6,12.5,22.2
					c7.2,5,11.9,13.3,11.9,22.8c0.1,9.6-4.8,18.2-12.2,23.3l0,0.1c-7.1,4.8-11.8,12.9-11.8,22.1c0.1,14.6,12,26.3,26.5,26.2
					C140.8,152.1,152.6,140.2,152.5,125.6z"/>
			</g>
		</g>
		<path class="st11" d="M135,35.5c0,5-4.1,9.1-9.1,9.1c-5,0-9.1-4.1-9.1-9.1c0-5,4.1-9.1,9.1-9.1C130.9,26.4,135,30.5,135,35.5z"/>
	</g>
</g>
<g>
	<g>
		<g>
			<g>
				
					<linearGradient id="SVGID_6_" gradientUnits="userSpaceOnUse" x1="3092.6758" y1="-2595.2905" x2="3220.0298" y2="-2595.2905" gradientTransform="matrix(-5.500000e-03 -1 1 -5.500000e-03 2713.3301 3305.375)">
					<stop  offset="0" style="stop-color:#007CC0"/>
					<stop  offset="3.210455e-02" style="stop-color:#0081C1"/>
					<stop  offset="0.191" style="stop-color:#0095C7"/>
					<stop  offset="0.3739" style="stop-color:#00A2CB"/>
					<stop  offset="0.6002" style="stop-color:#00ABCD"/>
					<stop  offset="1" style="stop-color:#00ADCE"/>
				</linearGradient>
				<path class="st12" d="M104.3,111c-5.2,7.7-5.8,17.2-2.4,25.2c3.3,8.3,2.6,18.1-2.8,26.1c-5,7.3-12.9,11.6-21.1,12.2
					c-9.3-0.9-18.8,3.1-24.4,11.4c-8.2,12.1-5.1,28.5,7,36.7c12.1,8.2,28.5,5,36.7-7c5.3-7.8,5.8-17.4,2.3-25.4
					c-3-8.2-2.2-17.7,3.1-25.5c5.4-8,14.2-12.3,23.2-12.3l0-0.1c8.6,0.1,17-3.9,22.2-11.6c8.2-12.1,5.1-28.5-7-36.7
					C128.9,95.8,112.4,99,104.3,111z"/>
			</g>
		</g>
		<g>
			<g>
				
					<linearGradient id="SVGID_7_" gradientUnits="userSpaceOnUse" x1="3091.2876" y1="-2342.8997" x2="3218.6416" y2="-2342.8997" gradientTransform="matrix(5.500000e-03 -1 -1 -5.500000e-03 -2209.2129 3305.375)">
					<stop  offset="0" style="stop-color:#E5007E"/>
					<stop  offset="1" style="stop-color:#29235C"/>
				</linearGradient>
				<path class="st13" d="M147.5,111c5.2,7.7,5.8,17.2,2.4,25.2c-3.3,8.3-2.6,18.1,2.8,26.1c5,7.3,12.9,11.6,21.1,12.2
					c9.3-0.9,18.8,3.1,24.4,11.4c8.2,12.1,5.1,28.5-7,36.7c-12.1,8.2-28.5,5-36.7-7c-5.3-7.8-5.8-17.4-2.3-25.4
					c3-8.2,2.2-17.7-3.1-25.5c-5.4-8-14.2-12.3-23.2-12.3l0-0.1c-8.6,0.1-17-3.9-22.2-11.6c-8.2-12.1-5.1-28.5,7-36.7
					C122.8,95.8,139.3,99,147.5,111z"/>
			</g>
		</g>
		<g>
			<g>
				
					<linearGradient id="SVGID_8_" gradientUnits="userSpaceOnUse" x1="1215.1737" y1="-1939.9266" x2="1342.537" y2="-1939.9266" gradientTransform="matrix(0.5977 0.8017 0.8017 -0.5977 874.2547 -2073.5713)">
					<stop  offset="0" style="stop-color:#34A836"/>
					<stop  offset="1" style="stop-color:#7DBB59"/>
				</linearGradient>
				<path class="st14" d="M117.7,150.7c-8.8-3-15-10.2-17.1-18.6c-2.4-8.6-8.8-16-18-19.1c-8.4-2.9-17.2-1.5-24.2,3
					c-6.9,6.3-16.9,8.8-26.4,5.6c-13.8-4.7-21.2-19.7-16.5-33.5c4.7-13.8,19.7-21.2,33.5-16.5c8.9,3,15.1,10.3,17.1,18.9
					C68.7,98.9,75.1,106,84,109c9.1,3.1,18.8,1.2,25.9-4.2l0.1,0.1c6.8-5.2,16-7.1,24.7-4.1c13.8,4.7,21.2,19.7,16.5,33.5
					C146.5,148.1,131.5,155.4,117.7,150.7z"/>
			</g>
		</g>
		<g>
			<g>
				
					<linearGradient id="SVGID_9_" gradientUnits="userSpaceOnUse" x1="1359.7932" y1="-1745.9487" x2="1487.1575" y2="-1745.9487" gradientTransform="matrix(-0.5977 0.8017 -0.8017 -0.5977 -380.5139 -2073.5713)">
					<stop  offset="0.2694" style="stop-color:#E20613"/>
					<stop  offset="0.9816" style="stop-color:#FFD100"/>
				</linearGradient>
				<path class="st15" d="M134.1,150.7c8.8-3,15-10.2,17.1-18.6c2.4-8.6,8.8-16,18-19.1c8.4-2.9,17.2-1.5,24.2,3
					c6.9,6.3,16.9,8.8,26.4,5.6c13.8-4.7,21.2-19.7,16.5-33.5c-4.7-13.8-19.7-21.2-33.5-16.5c-8.9,3-15.1,10.3-17.1,18.9
					c-2.5,8.4-8.9,15.5-17.8,18.5c-9.1,3.1-18.8,1.2-25.9-4.2l-0.1,0.1c-6.8-5.2-16-7.1-24.7-4.1c-13.8,4.7-21.2,19.7-16.5,33.5
					C105.3,148.1,120.3,155.4,134.1,150.7z"/>
			</g>
		</g>
		<g>
			<g>
				
					<linearGradient id="SVGID_10_" gradientUnits="userSpaceOnUse" x1="1329.6292" y1="5159.25" x2="1456.9927" y2="5159.25" gradientTransform="matrix(0.5711 0.8209 -0.8209 0.5711 3565.3457 -4009.689)">
					<stop  offset="1.691440e-02" style="stop-color:#DFBE00"/>
					<stop  offset="0.9436" style="stop-color:#F0821E"/>
				</linearGradient>
				<path class="st16" d="M152.5,125.6c0-9.3-4.9-17.4-12.2-22.1c-7.4-5-12.4-13.5-12.4-23.1c-0.1-8.9,4.1-16.8,10.5-22
					c8.2-4.5,13.7-13.3,13.7-23.3c-0.1-14.6-12-26.3-26.6-26.3c-14.6,0.1-26.3,12-26.3,26.6c0.1,9.4,5,17.6,12.5,22.2
					c7.2,5,11.9,13.3,11.9,22.8c0.1,9.6-4.8,18.2-12.2,23.3l0,0.1c-7.1,4.8-11.8,12.9-11.8,22.1c0.1,14.6,12,26.3,26.5,26.2
					C140.8,152.1,152.6,140.2,152.5,125.6z"/>
			</g>
		</g>
		<path class="st17" d="M135,35.5c0,5-4.1,9.1-9.1,9.1c-5,0-9.1-4.1-9.1-9.1c0-5,4.1-9.1,9.1-9.1C130.9,26.4,135,30.5,135,35.5z"/>
	</g>
</g>
</svg>
