<?xml version="1.0" encoding="utf-8"?>
<!-- Generator: Adobe Illustrator 20.1.0, SVG Export Plug-In . SVG Version: 6.00 Build 0)  -->
<svg version="1.1" id="Layer_1" xmlns="http://www.w3.org/2000/svg" xmlns:xlink="http://www.w3.org/1999/xlink" x="0px" y="0px"
	 viewBox="0 0 264.1 126.4" style="enable-background:new 0 0 264.1 126.4;" xml:space="preserve">
<style type="text/css">
	.st0{fill-rule:evenodd;clip-rule:evenodd;fill:#FFD100;}
	.st1{fill:#FFD100;}
	.st2{fill:#FFFFFF;}
	.st3{fill:url(#SVGID_1_);}
	.st4{fill:url(#SVGID_2_);}
	.st5{fill:url(#SVGID_3_);}
	.st6{fill:url(#SVGID_4_);}
	.st7{fill:url(#SVGID_5_);}
	.st8{fill:#150404;}
	.st9{fill-rule:evenodd;clip-rule:evenodd;}
	.st10{fill:#FCDB2B;}
	.st11{fill:#FFFFFF;stroke:#FFFFFF;stroke-width:0.8472;stroke-linecap:round;stroke-linejoin:round;stroke-miterlimit:10;}
	.st12{fill:#231F20;}
</style>
<g>
	<g>
		<g>
			<g>
				<g>
					
						<linearGradient id="SVGID_1_" gradientUnits="userSpaceOnUse" x1="2770.3997" y1="-2324.6682" x2="2801.5811" y2="-2324.6682" gradientTransform="matrix(-5.500000e-03 -1 1 -5.500000e-03 2367.1248 2847.0615)">
						<stop  offset="0" style="stop-color:#0A80BD"/>
						<stop  offset="3.210455e-02" style="stop-color:#0985BF"/>
						<stop  offset="0.191" style="stop-color:#0599C6"/>
						<stop  offset="0.3739" style="stop-color:#02A6CA"/>
						<stop  offset="0.6002" style="stop-color:#00AFCD"/>
						<stop  offset="1" style="stop-color:#00B1CE"/>
					</linearGradient>
					<path class="st3" d="M28,61.1c-1.3,1.9-1.4,4.2-0.6,6.2c0.8,2,0.6,4.4-0.7,6.4c-1.2,1.8-3.2,2.8-5.2,3c-2.3-0.2-4.6,0.8-6,2.8
						c-2,3-1.2,7,1.7,9c3,2,7,1.2,9-1.7c1.3-1.9,1.4-4.3,0.6-6.2c-0.7-2-0.5-4.3,0.7-6.2c1.3-2,3.5-3,5.7-3l0,0c2.1,0,4.2-1,5.4-2.8
						c2-3,1.2-7-1.7-9C34,57.3,30,58.1,28,61.1z"/>
				</g>
			</g>
			<g>
				<g>
					
						<linearGradient id="SVGID_2_" gradientUnits="userSpaceOnUse" x1="2772.4043" y1="-2689.1392" x2="2803.5857" y2="-2689.1392" gradientTransform="matrix(5.500000e-03 -1 -1 -5.500000e-03 -2665.0095 2847.0615)">
						<stop  offset="0" style="stop-color:#DB178C"/>
						<stop  offset="1" style="stop-color:#1C2955"/>
					</linearGradient>
					<path class="st4" d="M38.6,61.1c1.3,1.9,1.4,4.2,0.6,6.2c-0.8,2-0.6,4.4,0.7,6.4c1.2,1.8,3.2,2.8,5.2,3c2.3-0.2,4.6,0.8,6,2.8
						c2,3,1.2,7-1.7,9c-3,2-7,1.2-9-1.7c-1.3-1.9-1.4-4.3-0.6-6.2c0.7-2,0.5-4.3-0.7-6.2c-1.3-2-3.5-3-5.7-3l0,0
						c-2.1,0-4.2-1-5.4-2.8c-2-3-1.2-7,1.7-9C32.6,57.3,36.6,58.1,38.6,61.1z"/>
				</g>
			</g>
			<g>
				<g>
					
						<linearGradient id="SVGID_3_" gradientUnits="userSpaceOnUse" x1="1071.3384" y1="-1728.0626" x2="1102.5221" y2="-1728.0626" gradientTransform="matrix(0.5977 0.8017 0.8017 -0.5977 758.6293 -1843.158)">
						<stop  offset="0" style="stop-color:#49AE48"/>
						<stop  offset="1" style="stop-color:#79BB6D"/>
					</linearGradient>
					<path class="st5" d="M31.3,70.8c-2.2-0.7-3.7-2.5-4.2-4.6c-0.6-2.1-2.2-3.9-4.4-4.7c-2.1-0.7-4.2-0.4-5.9,0.7
						c-1.7,1.6-4.1,2.2-6.5,1.4c-3.4-1.2-5.2-4.8-4-8.2c1.2-3.4,4.8-5.2,8.2-4c2.2,0.7,3.7,2.5,4.2,4.6c0.6,2.1,2.2,3.8,4.4,4.5
						c2.2,0.8,4.6,0.3,6.3-1l0,0c1.7-1.3,3.9-1.7,6.1-1c3.4,1.2,5.2,4.8,4,8.2C38.4,70.1,34.7,71.9,31.3,70.8z"/>
				</g>
			</g>
			<g>
				<g>
					
						<linearGradient id="SVGID_4_" gradientUnits="userSpaceOnUse" x1="847.2695" y1="-2028.6085" x2="878.4533" y2="-2028.6085" gradientTransform="matrix(-0.5977 0.8017 -0.8017 -0.5977 -1066.8885 -1843.158)">
						<stop  offset="0.2694" style="stop-color:#E51E25"/>
						<stop  offset="0.9816" style="stop-color:#FFD100"/>
					</linearGradient>
					<path class="st6" d="M35.3,70.8c2.2-0.7,3.7-2.5,4.2-4.6c0.6-2.1,2.2-3.9,4.4-4.7c2.1-0.7,4.2-0.4,5.9,0.7
						c1.7,1.6,4.1,2.2,6.5,1.4c3.4-1.2,5.2-4.8,4-8.2c-1.2-3.4-4.8-5.2-8.2-4c-2.2,0.7-3.7,2.5-4.2,4.6c-0.6,2.1-2.2,3.8-4.4,4.5
						c-2.2,0.8-4.6,0.3-6.3-1l0,0c-1.7-1.3-3.9-1.7-6-1c-3.4,1.2-5.2,4.8-4,8.2C28.3,70.1,31.9,71.9,35.3,70.8z"/>
				</g>
			</g>
			<g>
				<g>
					
						<linearGradient id="SVGID_5_" gradientUnits="userSpaceOnUse" x1="1177.5515" y1="4866.2158" x2="1208.7352" y2="4866.2158" gradientTransform="matrix(0.5711 0.8209 -0.8209 0.5711 3346.5654 -3704.9553)">
						<stop  offset="1.691440e-02" style="stop-color:#D9BF2B"/>
						<stop  offset="0.9436" style="stop-color:#EE8C2E"/>
					</linearGradient>
					<path class="st7" d="M39.8,64.6c0-2.3-1.2-4.3-3-5.4c-1.8-1.2-3-3.3-3-5.7c0-2.2,1-4.1,2.6-5.4c2-1.1,3.4-3.3,3.3-5.7
						c0-3.6-2.9-6.4-6.5-6.4c-3.6,0-6.4,2.9-6.4,6.5c0,2.3,1.2,4.3,3.1,5.4c1.8,1.2,2.9,3.3,2.9,5.6c0,2.4-1.2,4.4-3,5.7l0,0
						c-1.7,1.2-2.9,3.2-2.9,5.4c0,3.6,2.9,6.4,6.5,6.4C37,71.1,39.8,68.2,39.8,64.6z"/>
				</g>
			</g>
			<circle class="st8" cx="33.3" cy="42.6" r="2.2"/>
		</g>
	</g>
	<g>
		<path d="M105.6,48.9v33.4h-4.2v-5.7c-1.8,2.2-3.8,3.8-6.1,4.9c-2.2,1.1-4.7,1.7-7.3,1.7c-4.7,0-8.8-1.7-12.1-5.1
			c-3.3-3.4-5-7.6-5-12.5c0-4.8,1.7-8.9,5.1-12.3C79.2,49.8,83.3,48,88,48c2.7,0,5.2,0.6,7.4,1.7c2.2,1.2,4.2,2.9,5.8,5.2v-6.1
			H105.6z M88.4,52.2c-2.4,0-4.6,0.6-6.6,1.8s-3.6,2.8-4.8,4.9c-1.2,2.1-1.8,4.4-1.8,6.7c0,2.3,0.6,4.6,1.8,6.7
			c1.2,2.1,2.8,3.8,4.9,5c2,1.2,4.2,1.8,6.5,1.8c2.3,0,4.6-0.6,6.7-1.8c2.1-1.2,3.7-2.8,4.9-4.8c1.1-2,1.7-4.3,1.7-6.8
			c0-3.9-1.3-7.1-3.8-9.7C95.2,53.5,92.1,52.2,88.4,52.2z"/>
		<path d="M141.3,36v46.3H137v-5.7c-1.8,2.2-3.8,3.8-6.1,4.9c-2.2,1.1-4.7,1.7-7.3,1.7c-4.7,0-8.8-1.7-12.1-5.1
			c-3.3-3.4-5-7.6-5-12.5c0-4.8,1.7-8.9,5.1-12.3c3.4-3.4,7.4-5.1,12.2-5.1c2.7,0,5.2,0.6,7.4,1.7c2.2,1.2,4.2,2.9,5.8,5.2V36H141.3
			z M124.1,52.2c-2.4,0-4.6,0.6-6.6,1.8c-2,1.2-3.6,2.8-4.8,4.9c-1.2,2.1-1.8,4.4-1.8,6.7c0,2.3,0.6,4.6,1.8,6.7
			c1.2,2.1,2.8,3.8,4.9,5c2,1.2,4.2,1.8,6.5,1.8c2.3,0,4.6-0.6,6.7-1.8c2.1-1.2,3.7-2.8,4.9-4.8c1.1-2,1.7-4.3,1.7-6.8
			c0-3.9-1.3-7.1-3.8-9.7C130.9,53.5,127.8,52.2,124.1,52.2z"/>
		<path d="M143,48.9h4.3v6c1.7-2.3,3.6-4,5.7-5.1c2.1-1.1,4.4-1.7,6.8-1.7c2.5,0,4.7,0.6,6.6,1.9c1.9,1.3,3.4,3,4.3,5.1
			c0.9,2.1,1.4,5.5,1.4,10v17.2h-4.3V66.4c0-3.8-0.2-6.4-0.5-7.7c-0.5-2.2-1.5-3.9-2.9-5c-1.4-1.1-3.3-1.7-5.5-1.7
			c-2.6,0-4.9,0.9-7,2.6c-2.1,1.7-3.4,3.8-4.1,6.4c-0.4,1.7-0.6,4.7-0.6,9.1v12.2H143V48.9z"/>
	</g>
	<g>
		<g>
			<path d="M185.6,44.8v6.6h-0.8v-1.1c-0.4,0.4-0.8,0.8-1.2,1c-0.4,0.2-0.9,0.3-1.5,0.3c-0.9,0-1.7-0.3-2.4-1c-0.7-0.7-1-1.5-1-2.5
				c0-1,0.3-1.8,1-2.4c0.7-0.7,1.5-1,2.4-1c0.5,0,1,0.1,1.5,0.3c0.4,0.2,0.8,0.6,1.2,1v-1.2H185.6z M182.2,45.5
				c-0.5,0-0.9,0.1-1.3,0.3c-0.4,0.2-0.7,0.6-1,1c-0.2,0.4-0.4,0.9-0.4,1.3c0,0.5,0.1,0.9,0.4,1.3c0.2,0.4,0.6,0.8,1,1
				c0.4,0.2,0.8,0.4,1.3,0.4c0.5,0,0.9-0.1,1.3-0.4c0.4-0.2,0.7-0.6,1-1c0.2-0.4,0.3-0.9,0.3-1.4c0-0.8-0.3-1.4-0.8-1.9
				C183.5,45.7,182.9,45.5,182.2,45.5z"/>
			<path d="M193.9,46.2l-0.7,0.4c-0.6-0.8-1.4-1.2-2.4-1.2c-0.8,0-1.5,0.3-2,0.8c-0.5,0.5-0.8,1.1-0.8,1.9c0,0.5,0.1,0.9,0.4,1.4
				c0.2,0.4,0.6,0.8,1,1c0.4,0.2,0.9,0.4,1.4,0.4c1,0,1.8-0.4,2.4-1.2l0.7,0.4c-0.3,0.5-0.7,0.8-1.3,1.1c-0.5,0.3-1.1,0.4-1.8,0.4
				c-1,0-1.9-0.3-2.6-1c-0.7-0.7-1-1.5-1-2.4c0-0.6,0.2-1.2,0.5-1.8c0.3-0.6,0.8-1,1.3-1.3c0.6-0.3,1.2-0.5,1.9-0.5
				c0.4,0,0.9,0.1,1.3,0.2c0.4,0.1,0.8,0.3,1,0.5C193.5,45.6,193.7,45.9,193.9,46.2z"/>
			<path d="M201.1,49.2l0.7,0.4c-0.2,0.5-0.5,0.8-0.8,1.1c-0.3,0.3-0.7,0.5-1,0.6c-0.4,0.1-0.8,0.2-1.3,0.2c-1.1,0-1.9-0.4-2.5-1.1
				c-0.6-0.7-0.9-1.5-0.9-2.4c0-0.8,0.3-1.6,0.8-2.2c0.7-0.8,1.5-1.3,2.6-1.3c1.1,0,2,0.4,2.7,1.3c0.5,0.6,0.7,1.4,0.7,2.3h-5.9
				c0,0.8,0.3,1.4,0.7,1.9c0.5,0.5,1.1,0.7,1.8,0.7c0.3,0,0.7-0.1,1-0.2c0.3-0.1,0.6-0.3,0.8-0.5C200.6,50,200.8,49.7,201.1,49.2z
				 M201.1,47.5c-0.1-0.5-0.3-0.8-0.5-1.1c-0.2-0.3-0.5-0.5-0.9-0.7c-0.4-0.2-0.7-0.2-1.1-0.2c-0.6,0-1.2,0.2-1.7,0.6
				c-0.3,0.3-0.6,0.8-0.8,1.4H201.1z"/>
			<path d="M203.5,42.3h0.8v9.2h-0.8V42.3z"/>
			<path d="M211.7,49.2l0.7,0.4c-0.2,0.5-0.5,0.8-0.8,1.1c-0.3,0.3-0.7,0.5-1,0.6c-0.4,0.1-0.8,0.2-1.3,0.2c-1.1,0-1.9-0.4-2.5-1.1
				c-0.6-0.7-0.9-1.5-0.9-2.4c0-0.8,0.3-1.6,0.8-2.2c0.7-0.8,1.5-1.3,2.6-1.3c1.1,0,2,0.4,2.7,1.3c0.5,0.6,0.7,1.4,0.7,2.3h-5.9
				c0,0.8,0.3,1.4,0.7,1.9c0.5,0.5,1.1,0.7,1.8,0.7c0.3,0,0.7-0.1,1-0.2c0.3-0.1,0.6-0.3,0.8-0.5C211.2,50,211.4,49.7,211.7,49.2z
				 M211.7,47.5c-0.1-0.5-0.3-0.8-0.5-1.1c-0.2-0.3-0.5-0.5-0.9-0.7c-0.4-0.2-0.7-0.2-1.1-0.2c-0.6,0-1.2,0.2-1.7,0.6
				c-0.3,0.3-0.6,0.8-0.8,1.4H211.7z"/>
			<path d="M213.9,44.8h0.9v1c0.3-0.4,0.5-0.7,0.8-0.9c0.3-0.2,0.6-0.3,0.9-0.3c0.2,0,0.5,0.1,0.8,0.2l-0.4,0.7
				c-0.2-0.1-0.3-0.1-0.4-0.1c-0.3,0-0.6,0.1-0.8,0.3c-0.3,0.2-0.5,0.6-0.6,1.1c-0.1,0.4-0.2,1.1-0.2,2.3v2.2h-0.9V44.8z"/>
			<path d="M224.5,44.8v6.6h-0.8v-1.1c-0.4,0.4-0.8,0.8-1.2,1c-0.4,0.2-0.9,0.3-1.5,0.3c-0.9,0-1.7-0.3-2.4-1c-0.7-0.7-1-1.5-1-2.5
				c0-1,0.3-1.8,1-2.4c0.7-0.7,1.5-1,2.4-1c0.5,0,1,0.1,1.5,0.3c0.4,0.2,0.8,0.6,1.2,1v-1.2H224.5z M221.1,45.5
				c-0.5,0-0.9,0.1-1.3,0.3c-0.4,0.2-0.7,0.6-1,1c-0.2,0.4-0.4,0.9-0.4,1.3c0,0.5,0.1,0.9,0.4,1.3c0.2,0.4,0.6,0.8,1,1
				c0.4,0.2,0.8,0.4,1.3,0.4c0.5,0,0.9-0.1,1.3-0.4c0.4-0.2,0.7-0.6,1-1c0.2-0.4,0.3-0.9,0.3-1.4c0-0.8-0.3-1.4-0.8-1.9
				C222.5,45.7,221.8,45.5,221.1,45.5z"/>
			<path d="M233,42.3v9.2h-0.8v-1.1c-0.4,0.4-0.8,0.8-1.2,1c-0.4,0.2-0.9,0.3-1.5,0.3c-0.9,0-1.7-0.3-2.4-1c-0.7-0.7-1-1.5-1-2.5
				c0-1,0.3-1.8,1-2.4c0.7-0.7,1.5-1,2.4-1c0.5,0,1,0.1,1.5,0.3c0.4,0.2,0.8,0.6,1.2,1v-3.8H233z M229.6,45.5
				c-0.5,0-0.9,0.1-1.3,0.3c-0.4,0.2-0.7,0.6-1,1c-0.2,0.4-0.4,0.9-0.4,1.3c0,0.5,0.1,0.9,0.4,1.3s0.6,0.8,1,1
				c0.4,0.2,0.8,0.4,1.3,0.4c0.5,0,0.9-0.1,1.3-0.4c0.4-0.2,0.7-0.6,1-1c0.2-0.4,0.3-0.9,0.3-1.4c0-0.8-0.3-1.4-0.8-1.9
				C231,45.7,230.4,45.5,229.6,45.5z"/>
			<path d="M238.1,44.6c1,0,1.9,0.4,2.5,1.1c0.6,0.7,0.9,1.5,0.9,2.4c0,0.9-0.3,1.7-1,2.4c-0.6,0.7-1.5,1-2.5,1c-1,0-1.8-0.3-2.5-1
				c-0.6-0.7-1-1.5-1-2.4c0-0.9,0.3-1.7,0.9-2.4C236.2,45,237,44.6,238.1,44.6z M238.1,45.5c-0.7,0-1.3,0.3-1.8,0.8
				c-0.5,0.5-0.8,1.2-0.8,1.9c0,0.5,0.1,0.9,0.3,1.3c0.2,0.4,0.5,0.7,0.9,1c0.4,0.2,0.8,0.3,1.3,0.3c0.5,0,0.9-0.1,1.3-0.3
				c0.4-0.2,0.7-0.5,0.9-1c0.2-0.4,0.3-0.9,0.3-1.3c0-0.7-0.3-1.4-0.8-1.9C239.4,45.7,238.8,45.5,238.1,45.5z"/>
			<path d="M242.8,44.8h0.9v1c0.3-0.4,0.5-0.7,0.8-0.9s0.6-0.3,0.9-0.3c0.2,0,0.5,0.1,0.8,0.2l-0.4,0.7c-0.2-0.1-0.3-0.1-0.5-0.1
				c-0.3,0-0.6,0.1-0.8,0.3c-0.3,0.2-0.5,0.6-0.6,1.1c-0.1,0.4-0.2,1.1-0.2,2.3v2.2h-0.9V44.8z"/>
			<path d="M185.7,57.8V67h-0.8v-1.1c-0.4,0.4-0.8,0.8-1.2,1c-0.4,0.2-0.9,0.3-1.5,0.3c-0.9,0-1.7-0.3-2.4-1c-0.7-0.7-1-1.5-1-2.5
				c0-1,0.3-1.8,1-2.4c0.7-0.7,1.5-1,2.4-1c0.5,0,1,0.1,1.5,0.3c0.4,0.2,0.8,0.6,1.2,1v-3.8H185.7z M182.3,61
				c-0.5,0-0.9,0.1-1.3,0.3c-0.4,0.2-0.7,0.6-1,1c-0.2,0.4-0.4,0.9-0.4,1.3c0,0.5,0.1,0.9,0.4,1.3c0.2,0.4,0.6,0.8,1,1
				c0.4,0.2,0.8,0.4,1.3,0.4c0.5,0,0.9-0.1,1.3-0.4c0.4-0.2,0.7-0.6,1-1c0.2-0.4,0.3-0.9,0.3-1.4c0-0.8-0.3-1.4-0.8-1.9
				C183.6,61.3,183,61,182.3,61z"/>
			<path d="M187.9,57.7c0.2,0,0.4,0.1,0.5,0.2c0.1,0.1,0.2,0.3,0.2,0.5c0,0.2-0.1,0.4-0.2,0.5c-0.1,0.1-0.3,0.2-0.5,0.2
				c-0.2,0-0.4-0.1-0.5-0.2c-0.1-0.1-0.2-0.3-0.2-0.5c0-0.2,0.1-0.4,0.2-0.5C187.5,57.7,187.7,57.7,187.9,57.7z M187.4,60.4h0.9V67
				h-0.9V60.4z"/>
			<path d="M195.8,60.4h0.8v5.3c0,0.9-0.1,1.6-0.2,2c-0.2,0.6-0.6,1.1-1.2,1.4c-0.6,0.3-1.2,0.5-2,0.5c-0.6,0-1.1-0.1-1.5-0.2
				c-0.5-0.2-0.8-0.4-1.1-0.6c-0.3-0.3-0.5-0.7-0.8-1.2h0.9c0.3,0.4,0.6,0.8,1,1c0.4,0.2,0.9,0.3,1.5,0.3c0.6,0,1.1-0.1,1.5-0.3
				c0.4-0.2,0.7-0.5,0.9-0.8c0.2-0.3,0.3-0.9,0.3-1.6v-0.3c-0.3,0.4-0.7,0.7-1.2,0.9c-0.5,0.2-1,0.3-1.5,0.3c-0.6,0-1.2-0.2-1.7-0.5
				c-0.5-0.3-0.9-0.7-1.2-1.2c-0.3-0.5-0.4-1.1-0.4-1.7c0-0.6,0.2-1.2,0.5-1.7c0.3-0.5,0.7-0.9,1.3-1.3c0.5-0.3,1.1-0.5,1.7-0.5
				c0.5,0,1,0.1,1.4,0.3c0.4,0.2,0.8,0.5,1.2,1V60.4z M193.3,61c-0.5,0-0.9,0.1-1.3,0.4c-0.4,0.2-0.7,0.6-1,1
				c-0.2,0.4-0.4,0.9-0.4,1.3c0,0.7,0.2,1.3,0.7,1.8c0.5,0.5,1.1,0.7,1.9,0.7c0.8,0,1.4-0.2,1.9-0.7c0.5-0.5,0.7-1.1,0.7-1.9
				c0-0.5-0.1-0.9-0.3-1.3c-0.2-0.4-0.5-0.7-0.9-0.9C194.1,61.2,193.7,61,193.3,61z"/>
			<path d="M198.7,57.7c0.2,0,0.4,0.1,0.5,0.2c0.1,0.1,0.2,0.3,0.2,0.5c0,0.2-0.1,0.4-0.2,0.5c-0.1,0.1-0.3,0.2-0.5,0.2
				c-0.2,0-0.4-0.1-0.5-0.2c-0.1-0.1-0.2-0.3-0.2-0.5c0-0.2,0.1-0.4,0.2-0.5C198.4,57.7,198.5,57.7,198.7,57.7z M198.3,60.4h0.8V67
				h-0.8V60.4z"/>
			<path d="M201.7,57.9h0.9v2.5h1.3v0.7h-1.3V67h-0.9v-5.9h-1.2v-0.7h1.2V57.9z"/>
			<path d="M211.7,60.4V67h-0.8v-1.1c-0.4,0.4-0.8,0.8-1.2,1c-0.4,0.2-0.9,0.3-1.5,0.3c-0.9,0-1.7-0.3-2.4-1c-0.7-0.7-1-1.5-1-2.5
				c0-1,0.3-1.8,1-2.4c0.7-0.7,1.5-1,2.4-1c0.5,0,1,0.1,1.5,0.3c0.4,0.2,0.8,0.6,1.2,1v-1.2H211.7z M208.3,61
				c-0.5,0-0.9,0.1-1.3,0.3c-0.4,0.2-0.7,0.6-1,1c-0.2,0.4-0.4,0.9-0.4,1.3c0,0.5,0.1,0.9,0.4,1.3c0.2,0.4,0.6,0.8,1,1
				c0.4,0.2,0.8,0.4,1.3,0.4c0.5,0,0.9-0.1,1.3-0.4c0.4-0.2,0.7-0.6,1-1c0.2-0.4,0.3-0.9,0.3-1.4c0-0.8-0.3-1.4-0.8-1.9
				C209.7,61.3,209.1,61,208.3,61z"/>
			<path d="M213.5,57.8h0.9V67h-0.9V57.8z"/>
			<path d="M226.2,57.8V67h-0.8v-1.1c-0.4,0.4-0.8,0.8-1.2,1c-0.4,0.2-0.9,0.3-1.5,0.3c-0.9,0-1.7-0.3-2.4-1c-0.7-0.7-1-1.5-1-2.5
				c0-1,0.3-1.8,1-2.4c0.7-0.7,1.5-1,2.4-1c0.5,0,1,0.1,1.5,0.3c0.4,0.2,0.8,0.6,1.2,1v-3.8H226.2z M222.8,61
				c-0.5,0-0.9,0.1-1.3,0.3c-0.4,0.2-0.7,0.6-1,1c-0.2,0.4-0.4,0.9-0.4,1.3c0,0.5,0.1,0.9,0.4,1.3c0.2,0.4,0.6,0.8,1,1
				c0.4,0.2,0.8,0.4,1.3,0.4c0.5,0,0.9-0.1,1.3-0.4c0.4-0.2,0.7-0.6,1-1c0.2-0.4,0.3-0.9,0.3-1.4c0-0.8-0.3-1.4-0.8-1.9
				C224.1,61.3,223.5,61,222.8,61z"/>
			<path d="M233.7,64.8l0.7,0.4c-0.2,0.5-0.5,0.8-0.8,1.1c-0.3,0.3-0.7,0.5-1,0.6c-0.4,0.1-0.8,0.2-1.3,0.2c-1.1,0-1.9-0.4-2.5-1.1
				c-0.6-0.7-0.9-1.5-0.9-2.4c0-0.8,0.3-1.6,0.8-2.2c0.7-0.8,1.5-1.3,2.6-1.3c1.1,0,2,0.4,2.7,1.3c0.5,0.6,0.7,1.4,0.7,2.3h-5.9
				c0,0.8,0.3,1.4,0.7,1.9c0.5,0.5,1.1,0.7,1.8,0.7c0.3,0,0.7-0.1,1-0.2c0.3-0.1,0.6-0.3,0.8-0.5C233.2,65.6,233.4,65.2,233.7,64.8z
				 M233.7,63c-0.1-0.5-0.3-0.8-0.5-1.1c-0.2-0.3-0.5-0.5-0.9-0.7c-0.4-0.2-0.7-0.2-1.1-0.2c-0.7,0-1.2,0.2-1.7,0.6
				c-0.3,0.3-0.6,0.8-0.8,1.4H233.7z"/>
			<path d="M180.2,75.8h0.9V77c0.3-0.5,0.7-0.8,1.1-1c0.4-0.2,0.9-0.3,1.3-0.3c0.5,0,0.9,0.1,1.3,0.4c0.4,0.3,0.7,0.6,0.8,1
				c0.2,0.4,0.3,1.1,0.3,2v3.4h-0.8v-3.2c0-0.8,0-1.3-0.1-1.5c-0.1-0.4-0.3-0.8-0.6-1c-0.3-0.2-0.6-0.3-1.1-0.3
				c-0.5,0-1,0.2-1.4,0.5c-0.4,0.3-0.7,0.8-0.8,1.3c-0.1,0.3-0.1,0.9-0.1,1.8v2.4h-0.9V75.8z"/>
			<path d="M193.4,80.2l0.7,0.4c-0.2,0.5-0.5,0.8-0.8,1.1c-0.3,0.3-0.7,0.5-1,0.6c-0.4,0.1-0.8,0.2-1.3,0.2c-1.1,0-1.9-0.4-2.5-1.1
				c-0.6-0.7-0.9-1.5-0.9-2.4c0-0.8,0.3-1.6,0.8-2.2c0.7-0.8,1.5-1.3,2.6-1.3c1.1,0,2,0.4,2.7,1.3c0.5,0.6,0.7,1.4,0.7,2.3h-5.9
				c0,0.8,0.3,1.4,0.7,1.9c0.5,0.5,1.1,0.7,1.8,0.7c0.3,0,0.7-0.1,1-0.2c0.3-0.1,0.6-0.3,0.8-0.5C192.9,80.9,193.1,80.6,193.4,80.2z
				 M193.4,78.4c-0.1-0.5-0.3-0.8-0.5-1.1c-0.2-0.3-0.5-0.5-0.9-0.7c-0.4-0.2-0.7-0.2-1.1-0.2c-0.6,0-1.2,0.2-1.7,0.6
				c-0.3,0.3-0.6,0.8-0.8,1.4H193.4z"/>
			<path d="M201.6,75.8h0.9V81c0,0.9-0.1,1.6-0.2,2c-0.2,0.6-0.6,1.1-1.2,1.4c-0.6,0.3-1.2,0.5-2,0.5c-0.6,0-1.1-0.1-1.5-0.2
				s-0.8-0.4-1.1-0.6c-0.3-0.3-0.5-0.7-0.8-1.2h0.9c0.2,0.4,0.6,0.8,1,1c0.4,0.2,0.9,0.3,1.5,0.3c0.6,0,1.1-0.1,1.5-0.3
				c0.4-0.2,0.7-0.5,0.9-0.8c0.2-0.3,0.3-0.9,0.3-1.6v-0.3c-0.3,0.4-0.7,0.7-1.2,0.9c-0.5,0.2-1,0.3-1.5,0.3c-0.6,0-1.2-0.2-1.7-0.5
				c-0.5-0.3-0.9-0.7-1.2-1.2c-0.3-0.5-0.4-1.1-0.4-1.7c0-0.6,0.2-1.2,0.5-1.7c0.3-0.5,0.7-0.9,1.3-1.3c0.5-0.3,1.1-0.5,1.7-0.5
				c0.5,0,1,0.1,1.4,0.3c0.4,0.2,0.8,0.5,1.2,1V75.8z M199.1,76.4c-0.5,0-0.9,0.1-1.3,0.4c-0.4,0.2-0.7,0.6-1,1
				c-0.2,0.4-0.3,0.9-0.3,1.3c0,0.7,0.2,1.3,0.7,1.8c0.5,0.5,1.1,0.7,1.9,0.7c0.8,0,1.4-0.2,1.9-0.7c0.5-0.5,0.7-1.1,0.7-1.9
				c0-0.5-0.1-0.9-0.3-1.3c-0.2-0.4-0.5-0.7-0.9-0.9C200,76.5,199.6,76.4,199.1,76.4z"/>
			<path d="M207.4,75.6c1,0,1.9,0.4,2.5,1.1c0.6,0.7,0.9,1.5,0.9,2.4c0,0.9-0.3,1.7-1,2.4c-0.6,0.7-1.5,1-2.5,1c-1,0-1.8-0.3-2.5-1
				c-0.6-0.7-1-1.5-1-2.4c0-0.9,0.3-1.7,0.9-2.4C205.5,76,206.4,75.6,207.4,75.6z M207.4,76.4c-0.7,0-1.3,0.3-1.8,0.8
				c-0.5,0.5-0.8,1.2-0.8,1.9c0,0.5,0.1,0.9,0.3,1.3c0.2,0.4,0.5,0.7,0.9,1c0.4,0.2,0.8,0.3,1.3,0.3c0.5,0,0.9-0.1,1.3-0.3
				c0.4-0.2,0.7-0.5,0.9-1c0.2-0.4,0.3-0.9,0.3-1.3c0-0.7-0.3-1.4-0.8-1.9C208.7,76.7,208.1,76.4,207.4,76.4z"/>
			<path d="M218.8,77.1l-0.7,0.4c-0.6-0.8-1.4-1.2-2.4-1.2c-0.8,0-1.5,0.3-2,0.8c-0.5,0.5-0.8,1.1-0.8,1.9c0,0.5,0.1,0.9,0.4,1.4
				c0.2,0.4,0.6,0.8,1,1c0.4,0.2,0.9,0.4,1.4,0.4c1,0,1.8-0.4,2.4-1.2l0.7,0.4c-0.3,0.5-0.7,0.8-1.3,1.1c-0.5,0.3-1.1,0.4-1.8,0.4
				c-1,0-1.9-0.3-2.6-1c-0.7-0.7-1-1.5-1-2.4c0-0.6,0.2-1.2,0.5-1.8c0.3-0.6,0.8-1,1.3-1.3c0.6-0.3,1.2-0.5,1.9-0.5
				c0.4,0,0.9,0.1,1.3,0.2c0.4,0.1,0.8,0.3,1,0.5C218.4,76.5,218.6,76.8,218.8,77.1z"/>
			<path d="M220.8,73c0.2,0,0.4,0.1,0.5,0.2c0.1,0.1,0.2,0.3,0.2,0.5c0,0.2-0.1,0.4-0.2,0.5c-0.1,0.1-0.3,0.2-0.5,0.2
				c-0.2,0-0.4-0.1-0.5-0.2c-0.1-0.1-0.2-0.3-0.2-0.5c0-0.2,0.1-0.4,0.2-0.5C220.4,73.1,220.6,73,220.8,73z M220.3,75.8h0.8v6.6
				h-0.8V75.8z"/>
			<path d="M226.1,75.6c1,0,1.9,0.4,2.5,1.1c0.6,0.7,0.9,1.5,0.9,2.4c0,0.9-0.3,1.7-1,2.4c-0.6,0.7-1.5,1-2.5,1c-1,0-1.8-0.3-2.5-1
				c-0.6-0.7-1-1.5-1-2.4c0-0.9,0.3-1.7,0.9-2.4C224.2,76,225.1,75.6,226.1,75.6z M226.1,76.4c-0.7,0-1.3,0.3-1.8,0.8
				c-0.5,0.5-0.8,1.2-0.8,1.9c0,0.5,0.1,0.9,0.3,1.3c0.2,0.4,0.5,0.7,0.9,1c0.4,0.2,0.8,0.3,1.3,0.3c0.5,0,0.9-0.1,1.3-0.3
				c0.4-0.2,0.7-0.5,0.9-1c0.2-0.4,0.3-0.9,0.3-1.3c0-0.7-0.3-1.4-0.8-1.9C227.4,76.7,226.8,76.4,226.1,76.4z"/>
			<path d="M234.4,76.5l-0.5,0.6c-0.5-0.4-0.9-0.7-1.3-0.7c-0.3,0-0.5,0.1-0.7,0.3c-0.2,0.2-0.3,0.4-0.3,0.6c0,0.2,0.1,0.4,0.2,0.6
				c0.2,0.2,0.5,0.4,1,0.7c0.6,0.3,1.1,0.6,1.3,0.9c0.2,0.3,0.3,0.7,0.3,1c0,0.5-0.2,1-0.6,1.4c-0.4,0.4-0.9,0.6-1.4,0.6
				c-0.4,0-0.7-0.1-1.1-0.2c-0.3-0.2-0.6-0.4-0.9-0.7L231,81c0.4,0.5,0.9,0.7,1.4,0.7c0.3,0,0.6-0.1,0.9-0.3
				c0.2-0.2,0.4-0.5,0.4-0.8c0-0.2-0.1-0.5-0.2-0.7c-0.2-0.2-0.5-0.4-1.1-0.7c-0.6-0.3-1-0.6-1.2-0.9c-0.2-0.3-0.3-0.6-0.3-1
				c0-0.5,0.2-0.9,0.5-1.3c0.3-0.3,0.8-0.5,1.3-0.5C233.2,75.6,233.8,75.9,234.4,76.5z"/>
		</g>
	</g>
	<g>
		<g>
			<path class="st9" d="M171.4,84.2h-1.2l-0.7,6.2h0.9l0.1-1.5h0.4l0.1,1.5h0.9L171.4,84.2L171.4,84.2z M170.8,85.9l-0.2,2h0.3
				L170.8,85.9L170.8,85.9z"/>
			<path class="st9" d="M159.2,84.2H158l-0.7,6.2h0.9l0.1-1.5h0.4l0.1,1.5h0.9L159.2,84.2L159.2,84.2z M158.6,85.9l-0.2,2h0.3
				L158.6,85.9L158.6,85.9z"/>
			<path class="st9" d="M152.2,84.2H151l-0.7,6.2h0.9l0.1-1.5h0.4l0.1,1.5h0.9L152.2,84.2L152.2,84.2z M151.6,85.9l-0.2,2h0.3
				L151.6,85.9L151.6,85.9z"/>
			<polygon points="155.1,87.3 154.7,84.2 153.3,84.2 153.3,90.4 154.1,90.4 154.1,86.8 154.6,90.4 155.5,90.4 156,86.7 156,90.4 
				156.9,90.4 156.9,84.2 155.5,84.2 155.1,87.3 			"/>
			<polygon points="163,84.2 164,84.2 164,90.4 163,90.4 163,84.2 			"/>
			<polygon points="169,90.4 169,89.4 168,89.4 168,84.2 167,84.2 167,90.4 169,90.4 			"/>
			<polygon points="166.5,90.4 166.5,89.4 165.5,89.4 165.5,84.2 164.5,84.2 164.5,90.4 166.5,90.4 			"/>
			<path class="st9" d="M160.3,86.8v3.6h0.9v-2.7c0-0.3,0.4,0.1,0.4,0.4v1.8c0,0.3,0.1,0.5,0.1,0.5l0.9,0c0,0-0.1-0.2-0.1-0.5V88
				c0-0.3,0-1-0.5-1c0,0,0.5-0.1,0.5-1.4c0-1.1-0.4-1.4-1.2-1.4h-0.9V86.8L160.3,86.8z M161.2,85.1v1.4c0,0,0.4,0.1,0.4-0.7
				C161.6,85,161.2,85.1,161.2,85.1L161.2,85.1z"/>
			<path d="M172.4,85c0-0.5,0.4-0.9,0.8-0.9l0,0c0.4,0,0.8,0.4,0.8,0.9l0,0c0,0.5-0.4,0.9-0.8,0.9l0,0
				C172.8,85.9,172.4,85.5,172.4,85L172.4,85z M172.5,85c0,0.4,0.3,0.7,0.7,0.7l0,0c0.4,0,0.7-0.3,0.7-0.7l0,0
				c0-0.4-0.3-0.7-0.7-0.7l0,0C172.8,84.3,172.5,84.6,172.5,85L172.5,85L172.5,85z"/>
			<g>
				<path d="M172.7,85.3L172.7,85.3l-0.1-0.6h0.1l0.2,0.5l0.2-0.5h0.1v0.6h-0.1l0-0.5h0l-0.2,0.5h0l-0.2-0.5h0L172.7,85.3z"/>
				<path d="M173.7,85.3l-0.1-0.3h-0.2l0,0.3h-0.1v-0.6h0.2c0,0,0.1,0,0.1,0c0,0,0.1,0.1,0.1,0.1c0,0.1,0,0.1-0.1,0.2L173.7,85.3
					L173.7,85.3z M173.6,85C173.6,85,173.6,85,173.6,85c0.1-0.1,0.1-0.1,0.1-0.1c0,0,0-0.1,0-0.1c0,0,0,0-0.1,0h-0.1l0,0.2H173.6z"
					/>
			</g>
			<circle class="st10" cx="143.6" cy="86.1" r="1.4"/>
			<path d="M145.3,86.1c0,1-1.7,4.3-1.7,4.3s-1.7-3.3-1.7-4.3c0-1,0.8-1.9,1.7-1.9C144.5,84.2,145.3,85,145.3,86.1z M144.5,86.1
				c0-0.6-0.4-1-0.9-1c-0.5,0-0.9,0.5-0.9,1c0,0.6,0.4,1,0.9,1C144.1,87.1,144.5,86.7,144.5,86.1z"/>
			<polygon points="147.7,87.4 147.2,84.2 145.8,84.2 145.8,90.4 146.6,90.4 146.6,86.5 147.4,90.4 148.5,90.4 148.5,84.2 
				147.7,84.2 147.7,87.4 			"/>
			<path d="M137.8,87.3c0,0.6,0,1.3,0,1.9c0,1.7,2.2,1.5,2.2,0.2c0-1.1,0-1.4,0-1.4h-0.9c0,0,0,0.7,0,1.3c0,0.5-0.4,0.5-0.4,0
				c0-0.3,0-1.1,0-1.9c0-0.8,0-1.7,0-1.9c0-0.5,0.4-0.5,0.4,0c0,0.6,0,1.3,0,1.3h0.9c0,0,0-0.3,0-1.4c0-1.3-2.2-1.5-2.2,0.2
				C137.8,86,137.8,86.7,137.8,87.3L137.8,87.3z"/>
			<path d="M135.1,87.3c0,0,0,1.3,0,1.9c0,1.7,2.2,1.5,2.2,0.2c0-1.1,0-1.4,0-1.4h-0.9c0,0,0,0.7,0,1.3c0,0.5-0.4,0.5-0.4,0
				c0-0.3,0-1.1,0-1.9c0-0.8,0-1.7,0-1.9c0-0.5,0.4-0.5,0.4,0c0,0.6,0,1.3,0,1.3h0.9c0,0,0-0.3,0-1.4c0-1.3-2.2-1.5-2.2,0.2
				C135.1,86,135.1,86.7,135.1,87.3L135.1,87.3z"/>
			<polygon points="134.5,84.2 132.9,84.2 132.9,90.4 134.5,90.4 134.5,89.4 133.7,89.4 133.7,87.8 134.5,87.8 134.5,86.7 
				133.7,86.7 133.7,85.4 134.5,85.4 134.5,84.2 			"/>
			<path d="M132.3,86.6c0,0,0-0.8,0-1.3c0-1.4-2.2-1.4-2.2,0c0,0.2,0,0.5,0,0.9c0,0.5,0.2,0.8,0.3,0.9c0.1,0.1,0.7,0.9,0.8,1.1
				c0.2,0.3,0.2,0.5,0.2,1.1c0,0.6-0.4,0.6-0.4,0c0-0.1,0-1.2,0-1.2h-0.9c0,0,0,0.9,0,1.4c0,1.4,2.2,1.4,2.2,0
				c0-0.3,0.1-1.2-0.3-1.6c-0.3-0.4-0.8-1-0.9-1.3c-0.2-0.3-0.2-0.5-0.2-1.1c0-0.4,0.4-0.4,0.4,0c0,0.3,0,1.3,0,1.3H132.3
				L132.3,86.6z"/>
			<polygon points="140.5,84.2 141.4,84.2 141.4,90.4 140.5,90.4 140.5,84.2 			"/>
		</g>
		<g>
			<g>
				<path d="M124,86.1h0.7v4.1H124v-0.3c-0.1,0.1-0.3,0.2-0.4,0.3c-0.1,0.1-0.3,0.1-0.5,0.1c-0.4,0-0.7-0.1-1-0.4
					c-0.3-0.3-0.4-0.7-0.4-1.1c0-0.5,0.1-0.8,0.4-1.1c0.3-0.3,0.6-0.4,1-0.4c0.2,0,0.3,0,0.5,0.1c0.2,0.1,0.3,0.2,0.4,0.3V86.1z
					 M123.2,87.8c-0.2,0-0.4,0.1-0.6,0.2c-0.2,0.2-0.2,0.4-0.2,0.6c0,0.3,0.1,0.5,0.2,0.6c0.2,0.2,0.3,0.2,0.6,0.2
					c0.2,0,0.4-0.1,0.6-0.2c0.2-0.2,0.2-0.4,0.2-0.6c0-0.3-0.1-0.5-0.2-0.6C123.7,87.9,123.5,87.8,123.2,87.8z"/>
				<path d="M128.5,88.9h-2.4c0,0.2,0.1,0.4,0.3,0.5c0.1,0.1,0.3,0.2,0.6,0.2c0.3,0,0.5-0.1,0.7-0.3l0.6,0.3
					c-0.2,0.2-0.3,0.4-0.6,0.5c-0.2,0.1-0.5,0.2-0.8,0.2c-0.5,0-0.8-0.1-1.1-0.4c-0.3-0.3-0.4-0.7-0.4-1.1c0-0.5,0.1-0.8,0.4-1.1
					c0.3-0.3,0.7-0.4,1.1-0.4c0.5,0,0.8,0.1,1.1,0.4c0.3,0.3,0.4,0.7,0.4,1.2L128.5,88.9z M127.7,88.3c0-0.2-0.1-0.3-0.3-0.4
					c-0.1-0.1-0.3-0.2-0.5-0.2c-0.2,0-0.4,0.1-0.5,0.2c-0.1,0.1-0.2,0.2-0.3,0.4H127.7z"/>
			</g>
		</g>
	</g>
	<g>
		<g>
			<g>
				<path class="st11" d="M250.9,50.3v-2.9h0.6l0.7,2.1c0.1,0.2,0.1,0.3,0.1,0.4c0-0.1,0.1-0.3,0.2-0.5l0.7-2h0.5v2.9h-0.4v-2.5
					l-0.9,2.5h-0.4l-0.8-2.5v2.5H250.9z"/>
				<path class="st11" d="M254.4,50.3v-2.9h1.3c0.3,0,0.5,0,0.6,0.1c0.1,0.1,0.2,0.1,0.3,0.3c0.1,0.1,0.1,0.3,0.1,0.4
					c0,0.2-0.1,0.4-0.2,0.5c-0.1,0.1-0.3,0.2-0.6,0.3c0.1,0,0.2,0.1,0.2,0.1c0.1,0.1,0.2,0.2,0.3,0.4l0.5,0.8h-0.5l-0.4-0.6
					c-0.1-0.2-0.2-0.3-0.3-0.4c-0.1-0.1-0.1-0.2-0.2-0.2c-0.1,0-0.1-0.1-0.2-0.1c0,0-0.1,0-0.2,0h-0.5v1.3H254.4z M254.7,48.7h0.8
					c0.2,0,0.3,0,0.4-0.1c0.1,0,0.2-0.1,0.2-0.2c0.1-0.1,0.1-0.2,0.1-0.3c0-0.1-0.1-0.3-0.2-0.3c-0.1-0.1-0.3-0.1-0.5-0.1h-0.9V48.7
					z"/>
			</g>
			<path class="st11" d="M253.7,44.4c-2.5,0-4.4,2-4.4,4.4c0,2.5,2,4.4,4.4,4.4c2.5,0,4.4-2,4.4-4.4
				C258.2,46.4,256.2,44.4,253.7,44.4z M253.7,52.8c-2.2,0-4-1.8-4-4s1.8-4,4-4c2.2,0,4,1.8,4,4S255.9,52.8,253.7,52.8z"/>
		</g>
		<g>
			<g>
				<path class="st12" d="M250.9,50.3v-2.9h0.6l0.7,2.1c0.1,0.2,0.1,0.3,0.1,0.4c0-0.1,0.1-0.3,0.2-0.5l0.7-2h0.5v2.9h-0.4v-2.5
					l-0.9,2.5h-0.4l-0.8-2.5v2.5H250.9z"/>
				<path class="st12" d="M254.4,50.3v-2.9h1.3c0.3,0,0.5,0,0.6,0.1c0.1,0.1,0.2,0.1,0.3,0.3c0.1,0.1,0.1,0.3,0.1,0.4
					c0,0.2-0.1,0.4-0.2,0.5c-0.1,0.1-0.3,0.2-0.6,0.3c0.1,0,0.2,0.1,0.2,0.1c0.1,0.1,0.2,0.2,0.3,0.4l0.5,0.8h-0.5l-0.4-0.6
					c-0.1-0.2-0.2-0.3-0.3-0.4c-0.1-0.1-0.1-0.2-0.2-0.2c-0.1,0-0.1-0.1-0.2-0.1c0,0-0.1,0-0.2,0h-0.5v1.3H254.4z M254.7,48.7h0.8
					c0.2,0,0.3,0,0.4-0.1c0.1,0,0.2-0.1,0.2-0.2c0.1-0.1,0.1-0.2,0.1-0.3c0-0.1-0.1-0.3-0.2-0.3c-0.1-0.1-0.3-0.1-0.5-0.1h-0.9V48.7
					z"/>
			</g>
			<path class="st12" d="M253.7,44.4c-2.5,0-4.4,2-4.4,4.4c0,2.5,2,4.4,4.4,4.4c2.5,0,4.4-2,4.4-4.4
				C258.2,46.4,256.2,44.4,253.7,44.4z M253.7,52.8c-2.2,0-4-1.8-4-4s1.8-4,4-4c2.2,0,4,1.8,4,4S255.9,52.8,253.7,52.8z"/>
		</g>
	</g>
</g>
</svg>
