<?xml version="1.0" encoding="utf-8"?>
<!-- Generator: Adobe Illustrator 20.1.0, SVG Export Plug-In . SVG Version: 6.00 Build 0)  -->
<svg version="1.1" id="Layer_1" xmlns="http://www.w3.org/2000/svg" xmlns:xlink="http://www.w3.org/1999/xlink" x="0px" y="0px"
	 viewBox="0 0 45 45" style="enable-background:new 0 0 45 45;" xml:space="preserve">
<style type="text/css">
	.st0{fill:#333333;}
</style>
<path class="st0" d="M35.9,0H9.1C8.2,0,7.4,0.7,7.4,1.7v26.7c0,0.9,0.7,1.7,1.7,1.7h14.4V18.4h-3.9v-4.5h3.9v-3.4c0-3.9,2.4-6,5.8-6
	c1.7,0,3.1,0.1,3.5,0.2v4.1h-2.4c-1.9,0-2.2,0.9-2.2,2.2v2.9h4.5l-0.6,4.5h-3.9V30h7.7c0.9,0,1.7-0.7,1.7-1.7V1.6
	C37.5,0.7,36.8,0,35.9,0z"/>
</svg>
