<?xml version="1.0" encoding="utf-8"?>
<!-- Generator: Adobe Illustrator 20.1.0, SVG Export Plug-In . SVG Version: 6.00 Build 0)  -->
<svg version="1.1" id="Layer_1" xmlns="http://www.w3.org/2000/svg" xmlns:xlink="http://www.w3.org/1999/xlink" x="0px" y="0px"
	 viewBox="0 0 45 45" style="enable-background:new 0 0 45 45;" xml:space="preserve">
<style type="text/css">
	.st0{fill:#333333;}
</style>
<path class="st0" d="M35.7,0h-26c-1.1,0-2,0.9-2,2v26c0,1.1,0.9,2,2,2h26c1.1,0,2-0.9,2-2V2C37.7,0.9,36.8,0,35.7,0z M31.6,15.5
	c-2.1,8.4-15.9,11.9-22.3,3.2c2.4,2.3,6.7,2.5,9.4-0.3c-1.6,0.2-2.7-1.3-0.8-2.2c-1.7,0.2-2.7-0.7-3.1-1.5c0.4-0.4,0.9-0.6,1.7-0.7
	c-1.9-0.5-2.6-1.4-2.8-2.5c0.5-0.1,1.2-0.2,1.6-0.2c-1.7-0.9-2.3-2.2-2.2-3.2c3,1.1,4.9,2,6.5,2.9c0.6,0.3,1.2,0.9,1.9,1.5
	c0.9-2.4,2-4.9,4-6.1c0,0.3-0.2,0.5-0.4,0.8c0.5-0.5,1.3-0.8,2-0.9c-0.1,0.5-0.9,0.8-1.3,1c0.4-0.1,2.2-1,2.5-0.5
	c0.2,0.5-1.3,0.8-1.6,0.9c-0.2,0.1-0.4,0.1-0.6,0.2c2.4-0.2,4.7,1.7,5.4,4.2c0,0.2,0.1,0.4,0.1,0.6c0.9,0.3,2.5,0,3-0.3
	c-0.4,0.9-1.3,1.5-2.8,1.6c0.7,0.3,2,0.4,2.9,0.3C34,14.9,33.1,15.5,31.6,15.5z"/>
</svg>
