<?xml version="1.0" encoding="utf-8"?>
<!-- Generator: Adobe Illustrator 20.1.0, SVG Export Plug-In . SVG Version: 6.00 Build 0)  -->
<svg version="1.1" id="Capa_1" xmlns="http://www.w3.org/2000/svg" xmlns:xlink="http://www.w3.org/1999/xlink" x="0px" y="0px"
	 viewBox="0 0 250 250" style="enable-background:new 0 0 250 250;" xml:space="preserve">
<style type="text/css">
	.st0{fill:none;}
	.st1{fill:#A1A1A1;}
</style>
<path class="st0" d="M83.5,25.5c-12.6,3-24.2,9.4-33.7,18.4C35.5,57.6,27.3,76.1,26.8,96s6.8,38.7,20.5,53.1
	c18.2,19.2,45.6,27.2,71.4,21c12.6-3,24.2-9.4,33.7-18.4c14.4-13.7,22.5-32.2,23-52.1s-6.8-38.7-20.5-53.1
	C136.7,27.3,109.3,19.3,83.5,25.5z M112.8,110v30.2H89.3V110H59.1V86.5h30.2V56.3h23.5v30.2H143V110H112.8z"/>
<g>
	<path class="st1" d="M162.5,156.5l-12.3-12.9c5.8-7,9.1-15.8,9.3-25.1c0.2-10.9-3.8-21.4-11.3-29.3c-10.1-10.5-25.2-15-39.4-11.5
		c-7,1.7-13.3,5.2-18.6,10.2c-7.9,7.5-12.4,17.8-12.7,28.7c-0.2,10.9,3.8,21.4,11.3,29.3c10.1,10.6,25.2,15,39.4,11.6
		c5.4-1.3,10.4-3.7,14.9-7l22.2,23.3l7.1-6.8L162.5,156.5z M153.7,118.3c-0.2,9.4-4.1,18.1-10.8,24.6c-4.5,4.2-9.9,7.3-15.9,8.7
		c-12.2,2.9-25.1-0.8-33.7-9.9c-6.5-6.8-9.9-15.7-9.7-25c0.2-9.4,4.1-18.1,10.8-24.6c4.5-4.2,9.9-7.3,15.9-8.7
		c12.2-2.9,25.1,0.8,33.7,9.9C150.4,100,153.9,108.9,153.7,118.3z"/>
</g>
</svg>
